<?xml version="1.0" encoding="UTF-8"?>
<svg viewBox="0 0 128 128" xmlns="http://www.w3.org/2000/svg">
 <defs>
  <filter id="e" color-interpolation-filters="sRGB">
   <feGaussianBlur stdDeviation="3.48908"/>
  </filter>
  <linearGradient id="f" x1="184.86" x2="162.14" y1="15.594" y2="97.99" gradientUnits="userSpaceOnUse">
   <stop stop-color="#fdfdfd" offset="0"/>
   <stop stop-color="#4a4a4a" stop-opacity="0" offset="1"/>
  </linearGradient>
  <radialGradient id="a" cx="111.52" cy="95.2" r="181.57" gradientTransform="matrix(.33694 .028558 -.027533 .32484 2.1369 -5.6457)" gradientUnits="userSpaceOnUse">
   <stop stop-color="#3a3a3a" offset="0"/>
   <stop stop-color="#323232" offset="1"/>
  </radialGradient>
  <radialGradient id="g" cx="19.682" cy="-1.514" r="57.4" gradientTransform="matrix(1.2375 .59175 -.15614 .32654 -8.5663 -18.816)" gradientUnits="userSpaceOnUse">
   <stop stop-color="#eee" offset="0"/>
   <stop stop-color="#eee" stop-opacity="0" offset="1"/>
  </radialGradient>
 </defs>
 <path transform="matrix(.33815 -.00075988 .00075988 .33815 -3.6642 -2.5246)" d="m62.375 21.707c-11.264 0.20113-21.485 7.5973-24.75 18.938l-4.3125 15 3.9062 1.125-0.0625 0.03125 19.5 5.8125 0.25-0.1875 28.562 8.2188 11.344 3.4688 0.1875-0.15625 36.312 10.469 3.5 1.0312 0.0312-0.03125 20.562 5.9375-0.0312 0.03125 5.5 1.5625 33.375 9.5937-0.0937 0.0937 14.5 4.0625 24.438 7.0312-0.15625 0.125 19.094 5.375 0.0625-0.0312 81.031 23.312v4.7188h-36.656l-0.0312-0.0312h-19.406l0.0312 0.0312h-21.844l-0.0312-0.0312h-19.406l0.0312 0.0312h-21.656l-0.0312-0.0312-19.344 0.0312-21.438 0.0312v-0.0312h-19.375v0.0312h-21.219v-0.0312h-19.406v0.0312h-21.094l-0.03125-0.0312h-19.375l0.03125 0.0312h-21.062l-0.03125-0.0312h-19.406l0.03125 0.0312h-8.4062v198.53c0 14.524 11.695 26.219 26.219 26.219h294.03c14.524 0 26.219-11.695 26.219-26.219v-172.88c0.66403-2.2127 1.0312-4.5884 1.0312-7.0625v-37.594c0-0.28663-0.0217-0.55987-0.0312-0.84375 0.0995-3.2118-0.67-6.423-2.2188-9.4062l0.0625 0.0312c-0.20761-0.4019-0.45946-0.79666-0.6875-1.1875-1.2904-2.3776-2.9327-4.4731-4.9062-6.125-2.9389-2.7062-6.5339-4.8132-10.656-6l-25.281-7.2812 0.34375-0.28125-12.625-3.25-24.938-7.1875 0.15625-0.125-5.5312-1.4062-33.469-9.625 0.21875-0.1875-7.8125-2-31.25-9 0.28125-0.21875-9.9375-2.5625-134.94-38.844c-2.6375-0.7593-5.3069-1.1089-7.9062-1.0625z" fill="#1f1f1f" filter="url(#e)"/>
 <rect transform="matrix(-1 .0022472 .0022472 1 0 0)" x="-122.64" y="32.537" width="12.976" height="27.433" rx="6.488" ry="7.363" fill="#1f1f1f"/>
 <path d="m116.48 31.68c2.4798 0.70786 4.41 2.3777 5.5025 4.4811l-0.0182-0.0052c0.75632 1.4489 0.98783 3.0564 0.54725 4.5998-1.0698 3.7477-5.7198 5.7017-10.391 4.3683-0.0386-0.011-0.0751-0.0153-0.11178-0.02213l-104.37-29.782 1.4487-5.0751c1.3481-4.7227 6.2652-7.4309 11.025-6.0722l96.363 27.507z" fill="url(#a)"/>
 <path d="m5.2394 46.303 0.15086 67.135c0.01104 4.9113 3.9738 8.8563 8.8851 8.8453l99.427-0.22344c4.9113-0.0111 8.8563-3.9738 8.8452-8.8851l-0.15088-67.144" fill="url(#a)"/>
 <g transform="matrix(1.0814 .091657 -.091657 1.0814 .24059 -5.6773)" fill="#eee">
  <path d="m67.65 42.187-6.0107 0.53201 9.2949 11.467 6.1546-0.52664-9.4387-11.472 3e-6 2.8e-5zm6.7229-0.58504 9.3046 11.475 6.1546-0.52663-9.4387-11.472-6.0204 0.5239v1.5e-5zm12.797-1.1136 9.3135 11.474 6.1546-0.52663-9.4387-11.472-6.0293 0.52468 3e-6 1.5e-5zm-75.935 6.6169 9.3038 11.466 6.1546-0.52663-9.438-11.463-6.0204 0.52391 2e-6 1.6e-5zm12.557-1.0927 9.2949 11.467 6.1546-0.52663-9.438-11.463-6.0115 0.52313 1e-6 1.5e-5zm12.574-1.0942 9.3038 11.466 6.1546-0.52663-9.438-11.463-6.0204 0.5239 3e-6 1.5e-5zm12.61-1.0973 9.2949 11.467 6.1546-0.52664-9.438-11.463-6.0115 0.52313 3e-6 1.6e-5z"/>
  <path d="m95.63 22.569-11.145 11.019 6.0696 1.1502 11.13-11.165-6.0541-1.0041 7e-6 -4.1e-5z"/>
  <path d="m83.73 20.306-11.145 11.019 6.0696 1.1502 11.13-11.165-6.0541-1.0041 9e-6 -4.1e-5z"/>
  <path d="m71.39 17.869-11.145 11.019 6.0696 1.1502 11.13-11.165-6.0541-1.0041 1.2e-5 -4.1e-5z"/>
  <path d="m59.05 15.432-11.145 11.019 6.0696 1.1502 11.13-11.165-6.0541-1.0041 1.3e-5 -4.1e-5z"/>
  <path d="m46.563 13.041-11.261 10.901 6.0571 1.2144 11.247-11.047-6.0431-1.068 1e-5 -4.1e-5z"/>
  <path d="m33.973 10.661-11.381 10.776 6.0433 1.2812 11.369-10.922-6.0309-1.1348 9e-6 -4e-5z"/>
  <path d="m21.403 7.9869-11.75 10.971 6.2081 1.28 11.55-11.001l-6.0081-1.2502 1.1e-5 -4.02e-5z"/>
  <path d="m9.9561 58.858 0.11778 1.3534 106.86-9.2992-0.11778-1.3534-106.86 9.2992zm0.77269 8.8793 0.11853 1.3621 36.008-3.1335 1.7802 20.457-36.008 3.1335 0.11853 1.3621 53.362-4.6436 0.6474 7.4396-53.362 4.6436 0.11853 1.3621 53.362-4.6436 0.69317 7.9655-53.362 4.6436 0.11778 1.3534 106.86-9.2992-0.11778-1.3534-52.146 4.5378-0.69317-7.9655 52.146-4.5378-0.11853-1.3621-52.146 4.5378-0.64741-7.4396 52.146-4.5378-0.11853-1.3621-34.155 2.9722-1.7802-20.457 34.155-2.9722-0.11853-1.3621-106.86 9.2992zm37.489-1.89 33.974-2.9565 1.7802 20.457-33.974 2.9565-1.7802-20.457z"/>
 </g>
 <g transform="matrix(.30051 -.0006753 .0006753 .30051 4.7162 2.7831)" fill="#eee">
  <path d="m22.731 196.99c-7e-6 0.32036-0.05457 0.63016-0.1637 0.92939-0.10562 0.29572-0.26932 0.55799-0.4911 0.78681-0.22179 0.22883-0.50342 0.41189-0.8449 0.54918-0.34148 0.13378-0.74633 0.20067-1.2145 0.20067h-1.8482v2.6192h-1.5578v-7.4404h3.3426c0.47525 1e-5 0.88714 0.0581 1.2357 0.17426 0.34852 0.11266 0.63719 0.27284 0.86602 0.48054 0.22882 0.20771 0.3978 0.4559 0.50694 0.74457 0.11265 0.28868 0.16897 0.60727 0.16898 0.95579m-1.5683 0.0264c-5e-6 -0.38372-0.11618-0.67415-0.34852-0.8713-0.22883-0.20066-0.57383-0.30099-1.035-0.301h-1.6106v2.4132h1.6528c0.23234 0 0.43125-0.0299 0.59671-0.0898 0.16898-0.0599 0.30803-0.14434 0.41717-0.25347 0.11265-0.10913 0.19538-0.23939 0.24819-0.39077 0.0528-0.15489 0.0792-0.32387 0.07921-0.50694"/>
  <path d="m28.947 202.07-1.7268-2.8251h-1.8271v2.8251h-1.5578v-7.4404h3.7176c0.46469 1e-5 0.86954 0.0528 1.2145 0.15842 0.34852 0.1021 0.63895 0.24996 0.8713 0.44357 0.23234 0.19011 0.40484 0.42246 0.5175 0.69704 0.11617 0.27108 0.17425 0.57736 0.17426 0.91883-7e-6 0.27812-0.04225 0.53335-0.12674 0.76569-0.08098 0.22883-0.19539 0.43302-0.34324 0.61255-0.14434 0.17955-0.31684 0.33093-0.5175 0.45414-0.20067 0.11969-0.41894 0.2077-0.6548 0.26403l2.0119 3.1261h-1.7532m-0.18482-5.1592c-6e-6 -0.3626-0.1197-0.63191-0.35908-0.80794-0.23587-0.17601-0.57383-0.26402-1.0139-0.26403h-1.9961v2.1967h2.0383c0.23234 1e-5 0.43125-0.0264 0.59671-0.0792 0.16898-0.0563 0.30627-0.13377 0.41189-0.23235 0.10913-0.10208 0.1901-0.22178 0.24291-0.35908 0.0528-0.13729 0.0792-0.28867 0.07921-0.45413"/>
  <path d="m38.885 198.32c-8e-6 0.58088-0.08626 1.1089-0.25875 1.5842-0.17251 0.47526-0.4207 0.88186-0.74457 1.2198-0.32388 0.33796-0.71993 0.59847-1.1881 0.78153-0.4647 0.18307-0.991 0.2746-1.5789 0.2746-0.62312 0-1.1688-0.0951-1.637-0.28516-0.4647-0.19362-0.8537-0.46117-1.167-0.80265-0.31332-0.345-0.54919-0.75337-0.7076-1.2251-0.1549-0.47174-0.23235-0.98748-0.23235-1.5472 0-0.58086 0.08097-1.1054 0.24291-1.5736 0.16546-0.46821 0.40661-0.86602 0.72344-1.1934 0.32036-0.33091 0.71288-0.58438 1.1776-0.76041 0.46821-0.17953 1.0051-0.2693 1.6106-0.26931 0.60551 1e-5 1.1406 0.0898 1.6053 0.26931 0.46821 0.17955 0.86073 0.43478 1.1776 0.76569 0.32035 0.33092 0.56326 0.73049 0.72872 1.1987 0.16545 0.4647 0.24818 0.98572 0.24819 1.5631m-1.5895 0c-6e-6 -0.39076-0.04753-0.7428-0.14258-1.0561-0.09154-0.31683-0.22883-0.5879-0.41189-0.81322-0.18307-0.2253-0.41013-0.3978-0.6812-0.5175-0.26756-0.1232-0.57911-0.18481-0.93467-0.18482-0.36261 1e-5 -0.6812 0.0616-0.95579 0.18482-0.27108 0.1197-0.49814 0.2922-0.6812 0.5175-0.18306 0.22532-0.32036 0.49639-0.41189 0.81322-0.09153 0.31332-0.1373 0.66536-0.1373 1.0561-3e-6 0.38725 0.04576 0.74281 0.1373 1.0667 0.09505 0.32036 0.2341 0.59671 0.41717 0.82906 0.18306 0.23235 0.41012 0.41365 0.6812 0.5439 0.27107 0.13026 0.58438 0.19538 0.93995 0.19538 0.3802 0 0.7076-0.0651 0.9822-0.19538 0.27459-0.13377 0.49989-0.31684 0.67592-0.54918 0.17954-0.23587 0.31155-0.51398 0.39605-0.83434 0.08448-0.32388 0.12673-0.67592 0.12674-1.0561"/>
  <path d="m46.69 198.3c-8e-6 0.6196-0.0933 1.1653-0.27987 1.637-0.18659 0.46822-0.44182 0.86075-0.76569 1.1776-0.32388 0.31684-0.70761 0.55623-1.1512 0.71817-0.44006 0.16194-0.91531 0.2429-1.4258 0.2429h-3.01v-7.4404h2.6931c0.57734 1e-5 1.1072 0.0722 1.5895 0.21651 0.48229 0.14434 0.8977 0.36613 1.2462 0.66535 0.34851 0.29925 0.61959 0.67945 0.81322 1.1406 0.19362 0.46118 0.29043 1.0086 0.29043 1.6423m-1.5683 0c-6e-6 -0.43301-0.05985-0.80441-0.17954-1.1142-0.11618-0.30979-0.27988-0.56326-0.4911-0.76041-0.21123-0.20066-0.4647-0.34851-0.76041-0.44357-0.2922-0.095-0.61608-0.14257-0.97163-0.14258h-1.1036v5.0324h1.3202c0.31331 0 0.60199-0.0546 0.86602-0.1637 0.26755-0.10913 0.49813-0.27107 0.69176-0.48581 0.19714-0.21827 0.35028-0.48758 0.45941-0.80794 0.11265-0.32035 0.16897-0.69176 0.16898-1.1142"/>
  <path d="m47.883 202.07v-1.6106h1.5261v1.6106h-1.5261"/>
  <path d="m55.403 202.07-3.2423-5.7295c0.0176 0.15491 0.03344 0.3098 0.04753 0.4647 0.01408 0.13378 0.02464 0.27811 0.03168 0.43301 0.01056 0.1549 0.01584 0.30276 0.01584 0.44357v4.3882h-1.3835v-7.4404h1.7796l3.2898 5.777c-0.01761-0.14786-0.03345-0.30275-0.04753-0.4647-0.01409-0.13729-0.02641-0.29219-0.03696-0.46469-7e-3 -0.1725-0.01057-0.34676-0.01056-0.52278v-4.3248h1.3835v7.4404h-1.8271"/>
  <path d="m65.922 198.32c-8e-6 0.58088-0.08626 1.1089-0.25875 1.5842-0.17251 0.47526-0.4207 0.88186-0.74457 1.2198-0.32388 0.33796-0.71993 0.59847-1.1881 0.78153-0.4647 0.18307-0.991 0.2746-1.5789 0.2746-0.62312 0-1.1688-0.0951-1.637-0.28516-0.4647-0.19362-0.8537-0.46117-1.167-0.80265-0.31332-0.345-0.54918-0.75337-0.7076-1.2251-0.1549-0.47174-0.23235-0.98748-0.23235-1.5472 0-0.58086 0.08097-1.1054 0.24291-1.5736 0.16546-0.46821 0.40661-0.86602 0.72344-1.1934 0.32036-0.33091 0.71288-0.58438 1.1776-0.76041 0.46821-0.17953 1.0051-0.2693 1.6106-0.26931 0.60551 1e-5 1.1406 0.0898 1.6053 0.26931 0.46821 0.17955 0.86074 0.43478 1.1776 0.76569 0.32035 0.33092 0.56326 0.73049 0.72873 1.1987 0.16545 0.4647 0.24818 0.98572 0.24819 1.5631m-1.5895 0c-7e-6 -0.39076-0.04753-0.7428-0.14258-1.0561-0.09154-0.31683-0.22883-0.5879-0.41189-0.81322-0.18307-0.2253-0.41013-0.3978-0.6812-0.5175-0.26756-0.1232-0.57911-0.18481-0.93467-0.18482-0.36261 1e-5 -0.6812 0.0616-0.95579 0.18482-0.27108 0.1197-0.49814 0.2922-0.6812 0.5175-0.18306 0.22532-0.32036 0.49639-0.41189 0.81322-0.09153 0.31332-0.1373 0.66536-0.1373 1.0561-2e-6 0.38725 0.04576 0.74281 0.1373 1.0667 0.09505 0.32036 0.2341 0.59671 0.41717 0.82906 0.18306 0.23235 0.41012 0.41365 0.6812 0.5439 0.27107 0.13026 0.58438 0.19538 0.93995 0.19538 0.3802 0 0.7076-0.0651 0.9822-0.19538 0.27459-0.13377 0.49989-0.31684 0.67592-0.54918 0.17954-0.23587 0.31155-0.51398 0.39605-0.83434 0.08448-0.32388 0.12673-0.67592 0.12674-1.0561"/>
  <path d="m67.104 202.07v-1.6106h1.5261v1.6106h-1.5261"/>
  <path d="m23.09 233.09c-7e-6 0.33796-0.06161 0.646-0.18482 0.92411-0.12322 0.27459-0.31508 0.51046-0.57559 0.7076-0.257 0.19714-0.58792 0.35028-0.99276 0.45942-0.40133 0.10561-0.88011 0.15841-1.4363 0.15841-0.49286 0-0.92763-0.044-1.3043-0.13201-0.37669-0.088-0.70056-0.21827-0.97164-0.39077-0.26755-0.1725-0.48582-0.38548-0.6548-0.63895-0.16546-0.25699-0.28515-0.55095-0.35908-0.88187l1.505-0.24819c0.04224 0.16547 0.10385 0.31684 0.18482 0.45414s0.19186 0.25699 0.33268 0.35908c0.14433 0.0986 0.32212 0.17602 0.53334 0.23235 0.21474 0.0528 0.47349 0.0792 0.77625 0.0792 0.52806 0 0.93114-0.0792 1.2093-0.23763 0.28163-0.16194 0.42244-0.41365 0.42245-0.75513-5e-6 -0.20418-0.05633-0.3714-0.16898-0.50166-0.11266-0.13025-0.26228-0.23762-0.44885-0.32212-0.18659-0.0845-0.40133-0.15489-0.64424-0.21122-0.24291-0.0563-0.49638-0.11089-0.76041-0.1637-0.21123-0.0493-0.42245-0.10033-0.63368-0.15314-0.21123-0.0528-0.41365-0.11617-0.60727-0.1901-0.1901-0.0739-0.36788-0.16194-0.53334-0.26403s-0.3098-0.22706-0.43301-0.37493c-0.1197-0.15137-0.21475-0.32739-0.28515-0.52806-0.06689-0.20066-0.10033-0.43652-0.10033-0.7076 0-0.36964 0.07393-0.68648 0.22179-0.95051s0.35204-0.47877 0.61255-0.64424c0.26403-0.16897 0.57735-0.29218 0.93995-0.36964 0.3626-0.0774 0.75864-0.11617 1.1881-0.11618 0.48581 1e-5 0.90122 0.0387 1.2462 0.11618 0.34852 0.0739 0.63895 0.18835 0.8713 0.34324 0.23586 0.1549 0.42068 0.35029 0.55446 0.58615 0.13729 0.23235 0.23762 0.50518 0.301 0.81849l-1.5103 0.20595c-0.07745-0.32035-0.23587-0.5615-0.47526-0.72345-0.23587-0.16193-0.57559-0.2429-1.0192-0.24291-0.2746 1e-5 -0.50342 0.0247-0.68648 0.0739-0.17954 0.0458-0.32388 0.10914-0.43301 0.19011-0.10562 0.081-0.1813 0.17602-0.22707 0.28515-0.04577 0.10562-0.06865 0.21827-0.06865 0.33796-2e-6 0.18307 0.044 0.33444 0.13202 0.45413 0.08801 0.11618 0.21122 0.21475 0.36964 0.29572 0.15842 0.0774 0.34676 0.14434 0.56503 0.20066 0.22178 0.0528 0.46469 0.10738 0.72873 0.1637 0.23234 0.0493 0.46293 0.1021 0.69176 0.15842 0.22882 0.0528 0.44709 0.11618 0.6548 0.1901 0.2077 0.0739 0.40132 0.1637 0.58087 0.26931 0.17954 0.10562 0.33443 0.23587 0.4647 0.39077 0.13377 0.15138 0.23762 0.33268 0.31156 0.5439 0.07744 0.21123 0.11617 0.46118 0.11617 0.74985"/>
  <path d="m27.722 234.12c0.29219 0 0.5439-0.0405 0.75513-0.12145 0.21474-0.0845 0.39956-0.19363 0.55446-0.3274 0.15841-0.13378 0.28867-0.28515 0.39077-0.45414 0.10561-0.16897 0.19186-0.33971 0.25875-0.51222l1.3571 0.51222c-0.10914 0.26756-0.25172 0.52983-0.42773 0.78682-0.17603 0.25699-0.39605 0.48405-0.66008 0.6812-0.26404 0.19714-0.57911 0.35732-0.94523 0.48053-0.36261 0.1197-0.79034 0.17954-1.2832 0.17954-0.64424 0-1.2022-0.095-1.674-0.28515-0.47174-0.19362-0.8625-0.46117-1.1723-0.80265-0.30628-0.345-0.5351-0.75337-0.68648-1.2251-0.14786-0.47173-0.22179-0.98747-0.22179-1.5472-1e-6 -0.58086 0.07393-1.1054 0.22179-1.5736 0.15138-0.46821 0.37844-0.86602 0.6812-1.1934 0.30275-0.33092 0.68472-0.58439 1.1459-0.76041 0.46469-0.17954 1.0104-0.26931 1.637-0.26932 0.48581 1e-5 0.91002 0.0511 1.2726 0.15314 0.36612 0.1021 0.68119 0.24644 0.94523 0.43301 0.26754 0.18307 0.48757 0.40134 0.66008 0.6548 0.17601 0.24996 0.31331 0.52631 0.41189 0.82906l-1.373 0.37492c-0.04929-0.15841-0.12498-0.30979-0.22707-0.45413-0.1021-0.14785-0.23235-0.27811-0.39077-0.39077-0.1549-0.11264-0.33796-0.20241-0.54918-0.26931-0.21123-0.0704-0.45062-0.1056-0.71816-0.10561-0.37669 1e-5 -0.70056 0.0616-0.97163 0.18482-0.27108 0.1197-0.49462 0.2922-0.67064 0.5175-0.1725 0.22531-0.301 0.49638-0.38548 0.81322-0.08097 0.31332-0.12146 0.66536-0.12145 1.0561-2e-6 0.38725 0.04048 0.74281 0.12145 1.0667 0.08449 0.32036 0.21474 0.59671 0.39077 0.82905 0.17602 0.23235 0.40132 0.41365 0.67592 0.54391 0.27811 0.13025 0.61079 0.19538 0.99804 0.19538"/>
  <path d="m32.062 235.24v-7.4404h5.8509v1.204h-4.2931v1.8693h3.971v1.204h-3.971v1.9591h4.5096v1.204h-6.0674"/>
  <path d="m43.817 235.24-3.2423-5.7295c0.0176 0.1549 0.03344 0.3098 0.04753 0.46469 0.01408 0.13378 0.02464 0.27812 0.03168 0.43301 0.01056 0.15491 0.01584 0.30276 0.01584 0.44358v4.3882h-1.3835v-7.4404h1.7796l3.2898 5.777c-0.01761-0.14786-0.03345-0.30276-0.04753-0.4647-0.01409-0.13729-0.02641-0.29219-0.03696-0.46469-7e-3 -0.1725-0.01057-0.34676-0.01056-0.52278v-4.3248h1.3835v7.4404h-1.8271"/>
  <path d="m47.101 235.24v-7.4404h5.8509v1.204h-4.2931v1.8693h3.971v1.204h-3.971v1.9591h4.5096v1.204h-6.0674"/>
  <path d="m151.22 235.24-1.7268-2.8251h-1.8271v2.8251h-1.5578v-7.4404h3.7176c0.46469 1e-5 0.86953 0.0528 1.2145 0.15842 0.34852 0.1021 0.63895 0.24995 0.8713 0.44357 0.23234 0.19011 0.40484 0.42245 0.5175 0.69704 0.11617 0.27108 0.17426 0.57735 0.17426 0.91883 0 0.27812-0.0422 0.53335-0.12673 0.76569-0.081 0.22883-0.19539 0.43301-0.34324 0.61255-0.14434 0.17954-0.31685 0.33092-0.5175 0.45413-0.20067 0.1197-0.41894 0.20771-0.6548 0.26403l2.0119 3.1261h-1.7532m-0.18482-5.1592c-1e-5 -0.3626-0.1197-0.63191-0.35908-0.80794-0.23588-0.17601-0.57383-0.26402-1.0139-0.26403h-1.9961v2.1967h2.0383c0.23235 0 0.43125-0.0264 0.59671-0.0792 0.16898-0.0563 0.30627-0.13377 0.41189-0.23235 0.10913-0.10209 0.1901-0.22178 0.24291-0.35908 0.0528-0.13729 0.0792-0.28867 0.0792-0.45413"/>
  <path d="m161.16 231.48c-1e-5 0.58087-0.0863 1.1089-0.25875 1.5842-0.17251 0.47525-0.4207 0.88186-0.74457 1.2198-0.32388 0.33796-0.71993 0.59847-1.1881 0.78153-0.4647 0.18306-0.991 0.27459-1.5789 0.27459-0.62312 0-1.1688-0.095-1.637-0.28515-0.46469-0.19362-0.8537-0.46117-1.167-0.80265-0.31332-0.345-0.54919-0.75337-0.70761-1.2251-0.1549-0.47173-0.23234-0.98747-0.23234-1.5472 0-0.58086 0.081-1.1054 0.2429-1.5736 0.16546-0.46821 0.40661-0.86602 0.72345-1.1934 0.32036-0.33092 0.71288-0.58439 1.1776-0.76041 0.46821-0.17954 1.0051-0.26931 1.6106-0.26932 0.6055 1e-5 1.1406 0.0898 1.6053 0.26932 0.4682 0.17954 0.86073 0.43477 1.1776 0.76569 0.32035 0.33092 0.56326 0.73049 0.72873 1.1987 0.16545 0.4647 0.24818 0.98572 0.24819 1.5631m-1.5895 0c0-0.39076-0.0475-0.7428-0.14258-1.0561-0.0915-0.31684-0.22883-0.58791-0.41188-0.81322-0.18307-0.2253-0.41014-0.3978-0.6812-0.5175-0.26756-0.12321-0.57912-0.18481-0.93467-0.18482-0.36261 1e-5 -0.68121 0.0616-0.9558 0.18482-0.27107 0.1197-0.49814 0.2922-0.6812 0.5175-0.18306 0.22531-0.32036 0.49638-0.41188 0.81322-0.0915 0.31332-0.1373 0.66536-0.1373 1.0561 0 0.38725 0.0458 0.74281 0.1373 1.0667 0.095 0.32036 0.2341 0.59671 0.41717 0.82905 0.18305 0.23235 0.41012 0.41365 0.6812 0.54391 0.27106 0.13025 0.58438 0.19538 0.93995 0.19538 0.3802 0 0.70759-0.0651 0.98219-0.19538 0.27459-0.13378 0.49989-0.31684 0.67592-0.54919 0.17954-0.23586 0.31155-0.51398 0.39605-0.83434 0.0845-0.32387 0.12673-0.67591 0.12673-1.0561"/>
  <path d="m162.34 235.24v-7.4404h1.5578v6.2364h3.9922v1.204h-5.5499"/>
  <path d="m168.95 235.24v-7.4404h1.5578v6.2364h3.9922v1.204h-5.5499"/>
  <path d="m274.81 229v6.2364h-1.5578v-6.2364h-2.4027v-1.204h6.3684v1.204h-2.408"/>
  <path d="m282.52 235.23-0.66008-1.901h-2.8357l-0.66008 1.901h-1.5578l2.7142-7.4404h1.8376l2.7037 7.4404h-1.5419m-1.7426-5.212c-0.0422-0.12321-0.0845-0.24642-0.12674-0.36964-0.0387-0.12673-0.0739-0.24115-0.10561-0.34324-0.0282-0.10561-0.0528-0.19186-0.0739-0.25875-0.0176-0.0669-0.0282-0.10385-0.0317-0.1109-4e-3 0.0106-0.0141 0.0493-0.0317 0.11618-0.0176 0.0669-0.0423 0.15138-0.0739 0.25347-0.0282 0.10209-0.0634 0.21651-0.10561 0.34324-0.0387 0.12322-0.0792 0.24643-0.12145 0.36964l-0.73401 2.1386h2.1386l-0.734-2.1386"/>
  <path d="m290.22 235.23-2.672-3.4166-0.91883 0.70232v2.7142h-1.5578v-7.4404h1.5578v3.3743l3.3532-3.3743h1.8165l-3.1789 3.1472 3.4377 4.2931h-1.8377"/>
  <path d="m292.89 235.23v-7.4404h5.8509v1.204h-4.2931v1.8693h3.971v1.204h-3.971v1.9591h4.5096v1.204h-6.0674"/>
  <path d="m23.244 309.96c-7e-6 0.6196-0.0933 1.1653-0.27987 1.637-0.18659 0.46821-0.44182 0.86074-0.76569 1.1776-0.32388 0.31684-0.70761 0.55623-1.1512 0.71817-0.44006 0.16194-0.91531 0.24291-1.4258 0.24291h-3.01v-7.4404h2.6931c0.57734 1e-5 1.1072 0.0722 1.5895 0.21651 0.48229 0.14434 0.8977 0.36613 1.2462 0.66536 0.34851 0.29924 0.61959 0.67944 0.81322 1.1406 0.19362 0.46118 0.29043 1.0086 0.29043 1.6423m-1.5683 0c-6e-6 -0.433-0.05985-0.80441-0.17954-1.1142-0.11618-0.30979-0.27988-0.56326-0.4911-0.76041-0.21123-0.20065-0.4647-0.34851-0.76041-0.44357-0.2922-0.095-0.61608-0.14257-0.97163-0.14258h-1.1036v5.0324h1.3202c0.31331 1e-5 0.60199-0.0546 0.86602-0.16369 0.26755-0.10914 0.49813-0.27107 0.69176-0.48582 0.19714-0.21826 0.35028-0.48758 0.45941-0.80794 0.11265-0.32035 0.16897-0.69175 0.16898-1.1142"/>
  <path d="m24.426 313.74v-7.4404h1.5578v7.4404h-1.5578"/>
  <path d="m32.537 313.74-1.7268-2.8251h-1.8271v2.8251h-1.5578v-7.4404h3.7176c0.46469 1e-5 0.86954 0.0528 1.2145 0.15842 0.34852 0.1021 0.63895 0.24996 0.8713 0.44357 0.23234 0.19011 0.40484 0.42246 0.5175 0.69705 0.11617 0.27107 0.17425 0.57735 0.17426 0.91882-7e-6 0.27812-0.04225 0.53335-0.12674 0.76569-0.08098 0.22883-0.19539 0.43302-0.34324 0.61255-0.14434 0.17955-0.31684 0.33093-0.5175 0.45414-0.20067 0.1197-0.41894 0.20771-0.6548 0.26403l2.0119 3.1261h-1.7532m-0.18482-5.1592c-6e-6 -0.3626-0.1197-0.63191-0.35908-0.80793-0.23587-0.17602-0.57383-0.26403-1.0139-0.26404h-1.9961v2.1967h2.0383c0.23234 1e-5 0.43124-0.0264 0.59671-0.0792 0.16897-0.0563 0.30627-0.13377 0.41189-0.23234 0.10913-0.10209 0.1901-0.22179 0.24291-0.35909 0.0528-0.13729 0.0792-0.28867 0.07921-0.45413"/>
  <path d="m35.241 313.74v-7.4404h5.8509v1.204h-4.2931v1.8693h3.971v1.204h-3.971v1.9591h4.5096v1.204h-6.0674"/>
  <path d="m45.94 312.62c0.29219 1e-5 0.5439-0.0405 0.75513-0.12145 0.21474-0.0845 0.39956-0.19362 0.55447-0.3274 0.15841-0.13377 0.28867-0.28515 0.39076-0.45413 0.10561-0.16898 0.19186-0.33972 0.25875-0.51222l1.3571 0.51222c-0.10914 0.26755-0.25172 0.52982-0.42773 0.78681-0.17603 0.25699-0.39605 0.48406-0.66008 0.6812-0.26404 0.19714-0.57911 0.35732-0.94523 0.48054-0.36261 0.11969-0.79034 0.17954-1.2832 0.17954-0.64424 0-1.2022-0.0951-1.674-0.28515-0.47174-0.19363-0.8625-0.46118-1.1723-0.80266-0.30628-0.345-0.5351-0.75337-0.68648-1.2251-0.14786-0.47174-0.22179-0.98748-0.22179-1.5472 0-0.58087 0.07393-1.1054 0.22179-1.5736 0.15138-0.46821 0.37844-0.86601 0.6812-1.1934 0.30275-0.33091 0.68472-0.58438 1.1459-0.76041 0.46469-0.17953 1.0104-0.2693 1.637-0.26931 0.48581 1e-5 0.91002 0.0511 1.2726 0.15314 0.36612 0.1021 0.68119 0.24643 0.94523 0.43301 0.26754 0.18307 0.48757 0.40133 0.66008 0.6548 0.17601 0.24995 0.31331 0.5263 0.41189 0.82905l-1.373 0.37493c-0.04929-0.15842-0.12498-0.30979-0.22707-0.45414-0.1021-0.14785-0.23235-0.2781-0.39077-0.39076-0.1549-0.11265-0.33796-0.20242-0.54918-0.26931-0.21123-0.0704-0.45062-0.10561-0.71816-0.10562-0.37669 1e-5 -0.70056 0.0616-0.97163 0.18483-0.27107 0.1197-0.49462 0.2922-0.67064 0.5175-0.1725 0.22531-0.301 0.49638-0.38549 0.81321-0.08097 0.31332-0.12146 0.66536-0.12145 1.0561-2e-6 0.38724 0.04048 0.74281 0.12145 1.0667 0.08449 0.32036 0.21474 0.59671 0.39077 0.82906 0.17602 0.23235 0.40132 0.41365 0.67592 0.5439 0.27811 0.13026 0.61079 0.19539 0.99804 0.19538"/>
  <path d="m53.639 307.5v6.2364h-1.5578v-6.2364h-2.4027v-1.204h6.3684v1.204h-2.408"/>
  <path d="m63.936 309.98c-8e-6 0.58087-0.08626 1.1089-0.25875 1.5842-0.17251 0.47526-0.4207 0.88187-0.74457 1.2198-0.32388 0.33796-0.71993 0.59848-1.1881 0.78154-0.4647 0.18306-0.991 0.27459-1.5789 0.27459-0.62312 0-1.1688-0.0951-1.637-0.28515-0.4647-0.19363-0.8537-0.46118-1.167-0.80266-0.31332-0.345-0.54919-0.75337-0.7076-1.2251-0.1549-0.47174-0.23235-0.98748-0.23235-1.5472 0-0.58087 0.08097-1.1054 0.24291-1.5736 0.16546-0.46821 0.40661-0.86601 0.72344-1.1934 0.32036-0.33091 0.71288-0.58438 1.1776-0.76041 0.46821-0.17953 1.0051-0.2693 1.6106-0.26931 0.60551 1e-5 1.1406 0.0898 1.6053 0.26931 0.46821 0.17955 0.86073 0.43478 1.1776 0.76569 0.32035 0.33093 0.56326 0.73049 0.72872 1.1987 0.16545 0.4647 0.24818 0.98572 0.24819 1.5631m-1.5895 0c-6e-6 -0.39077-0.04753-0.74281-0.14258-1.0561-0.09154-0.31683-0.22883-0.5879-0.41189-0.81321-0.18307-0.2253-0.41013-0.3978-0.6812-0.5175-0.26756-0.12321-0.57911-0.18482-0.93467-0.18483-0.36261 1e-5 -0.6812 0.0616-0.95579 0.18483-0.27108 0.1197-0.49814 0.2922-0.6812 0.5175-0.18306 0.22531-0.32036 0.49638-0.41189 0.81321-0.09153 0.31332-0.1373 0.66536-0.1373 1.0561-2e-6 0.38724 0.04576 0.74281 0.1373 1.0667 0.09505 0.32036 0.2341 0.59671 0.41717 0.82906 0.18306 0.23235 0.41012 0.41365 0.6812 0.5439 0.27107 0.13026 0.58438 0.19539 0.93995 0.19538 0.3802 1e-5 0.7076-0.0651 0.9822-0.19538 0.27459-0.13377 0.49989-0.31683 0.67592-0.54918 0.17954-0.23587 0.31155-0.51398 0.39605-0.83434 0.08448-0.32388 0.12673-0.67592 0.12674-1.0561"/>
  <path d="m70.22 313.74-1.7268-2.8251h-1.8271v2.8251h-1.5578v-7.4404h3.7176c0.46469 1e-5 0.86954 0.0528 1.2145 0.15842 0.34852 0.1021 0.63895 0.24996 0.8713 0.44357 0.23234 0.19011 0.40484 0.42246 0.5175 0.69705 0.11617 0.27107 0.17425 0.57735 0.17426 0.91882-7e-6 0.27812-0.04225 0.53335-0.12673 0.76569-0.08098 0.22883-0.19539 0.43302-0.34324 0.61255-0.14434 0.17955-0.31684 0.33093-0.5175 0.45414-0.20067 0.1197-0.41894 0.20771-0.6548 0.26403l2.0119 3.1261h-1.7532m-0.18482-5.1592c-5e-6 -0.3626-0.1197-0.63191-0.35908-0.80793-0.23587-0.17602-0.57383-0.26403-1.0139-0.26404h-1.9961v2.1967h2.0383c0.23234 1e-5 0.43125-0.0264 0.59671-0.0792 0.16898-0.0563 0.30627-0.13377 0.41189-0.23234 0.10913-0.10209 0.1901-0.22179 0.24291-0.35909 0.0528-0.13729 0.0792-0.28867 0.07921-0.45413"/>
  <path d="m211.69 312.62c0.29219 1e-5 0.5439-0.0405 0.75513-0.12145 0.21474-0.0845 0.39956-0.19362 0.55446-0.3274 0.15841-0.13377 0.28867-0.28515 0.39077-0.45413 0.1056-0.16898 0.19185-0.33972 0.25875-0.51222l1.3571 0.51222c-0.10914 0.26755-0.25172 0.52982-0.42773 0.78681-0.17603 0.25699-0.39606 0.48406-0.66008 0.6812-0.26404 0.19714-0.57911 0.35732-0.94523 0.48054-0.36261 0.11969-0.79034 0.17954-1.2832 0.17954-0.64424 0-1.2022-0.0951-1.674-0.28515-0.47174-0.19363-0.8625-0.46118-1.1723-0.80266-0.30627-0.345-0.5351-0.75337-0.68648-1.2251-0.14786-0.47174-0.22178-0.98748-0.22178-1.5472 0-0.58087 0.0739-1.1054 0.22178-1.5736 0.15138-0.46821 0.37845-0.86601 0.6812-1.1934 0.30276-0.33091 0.68472-0.58438 1.1459-0.76041 0.46469-0.17953 1.0104-0.2693 1.637-0.26931 0.48581 1e-5 0.91002 0.0511 1.2726 0.15314 0.36612 0.1021 0.68119 0.24643 0.94523 0.43301 0.26754 0.18307 0.48757 0.40133 0.66008 0.6548 0.17601 0.24995 0.31331 0.5263 0.41189 0.82905l-1.373 0.37493c-0.0493-0.15842-0.12498-0.30979-0.22706-0.45414-0.1021-0.14785-0.23236-0.2781-0.39077-0.39076-0.1549-0.11265-0.33796-0.20242-0.54918-0.26931-0.21123-0.0704-0.45062-0.10561-0.71817-0.10562-0.37668 1e-5 -0.70056 0.0616-0.97163 0.18483-0.27108 0.1197-0.49462 0.2922-0.67064 0.5175-0.1725 0.22531-0.301 0.49638-0.38548 0.81321-0.081 0.31332-0.12146 0.66536-0.12146 1.0561 0 0.38724 0.0405 0.74281 0.12146 1.0667 0.0845 0.32036 0.21474 0.59671 0.39076 0.82906s0.40133 0.41365 0.67592 0.5439c0.27811 0.13026 0.61079 0.19539 0.99804 0.19538"/>
  <path d="m221.29 313.74-0.66007-1.901h-2.8357l-0.66007 1.901h-1.5578l2.7142-7.4404h1.8377l2.7037 7.4404h-1.542m-1.7426-5.212c-0.0422-0.1232-0.0845-0.24642-0.12673-0.36964-0.0387-0.12673-0.0739-0.24114-0.10562-0.34324-0.0282-0.10561-0.0528-0.19186-0.0739-0.25875-0.0176-0.0669-0.0282-0.10385-0.0317-0.11089-4e-3 0.0106-0.0141 0.0493-0.0317 0.11617-0.0176 0.0669-0.0422 0.15138-0.0739 0.25347-0.0282 0.1021-0.0634 0.21651-0.10561 0.34324-0.0387 0.12322-0.0792 0.24644-0.12146 0.36964l-0.734 2.1387h2.1386l-0.73401-2.1387"/>
  <path d="m230.02 313.74v-4.5096c-1e-5 -0.17954 2e-3 -0.36436 5e-3 -0.55447 7e-3 -0.1901 0.0141-0.36436 0.0211-0.52278 0.0106-0.18658 0.0194-0.36788 0.0264-0.5439-0.0739 0.27811-0.14435 0.54215-0.21123 0.79209-0.0282 0.10562-0.0581 0.21475-0.0898 0.3274-0.0317 0.11266-0.0634 0.22179-0.095 0.3274-0.0282 0.10561-0.0563 0.20418-0.0845 0.29571-0.0282 0.0915-0.0528 0.17075-0.0739 0.23763l-1.3413 4.1506h-1.1089l-1.3413-4.1506c-0.0211-0.0669-0.0458-0.14609-0.0739-0.23763-0.0247-0.0915-0.0528-0.1901-0.0845-0.29571-0.0282-0.10561-0.0581-0.21474-0.0898-0.3274-0.0317-0.11265-0.0634-0.22178-0.095-0.3274-0.0704-0.24994-0.14434-0.51398-0.22179-0.79209 0.0106 0.20419 0.0211 0.40485 0.0317 0.60199 7e-3 0.16898 0.0141 0.34676 0.0211 0.53334 7e-3 0.18659 0.0106 0.34853 0.0106 0.48582v4.5096h-1.3835v-7.4404h2.0858l1.3307 4.1611c0.0352 0.10914 0.0722 0.24291 0.11089 0.40133 0.0422 0.15842 0.0827 0.31156 0.12145 0.45941 0.0422 0.1725 0.088 0.35205 0.1373 0.53863 0.0493-0.18306 0.0968-0.35908 0.14258-0.52807 0.0211-0.0739 0.0422-0.14961 0.0634-0.22706 0.0211-0.0774 0.0422-0.15314 0.0634-0.22707 0.0211-0.0739 0.0422-0.14433 0.0634-0.21122 0.0211-0.0669 0.0405-0.12674 0.0581-0.17955l1.3096-4.1875h2.0753v7.4404h-1.3835"/>
  <path d="m232.86 313.74v-7.4404h5.8509v1.204h-4.2931v1.8693h3.971v1.204h-3.971v1.9591h4.5096v1.204h-6.0674"/>
  <path d="m245.2 313.74-1.7268-2.8251h-1.8271v2.8251h-1.5578v-7.4404h3.7176c0.46469 1e-5 0.86953 0.0528 1.2145 0.15842 0.34851 0.1021 0.63895 0.24996 0.8713 0.44357 0.23234 0.19011 0.40484 0.42246 0.5175 0.69705 0.11617 0.27107 0.17426 0.57735 0.17426 0.91882 0 0.27812-0.0422 0.53335-0.12673 0.76569-0.081 0.22883-0.19539 0.43302-0.34324 0.61255-0.14435 0.17955-0.31685 0.33093-0.5175 0.45414-0.20067 0.1197-0.41894 0.20771-0.6548 0.26403l2.0119 3.1261h-1.7532m-0.18482-5.1592c-1e-5 -0.3626-0.1197-0.63191-0.35908-0.80793-0.23588-0.17602-0.57384-0.26403-1.0139-0.26404h-1.9961v2.1967h2.0383c0.23235 1e-5 0.43125-0.0264 0.59671-0.0792 0.16898-0.0563 0.30627-0.13377 0.41189-0.23234 0.10913-0.10209 0.1901-0.22179 0.24291-0.35909 0.0528-0.13729 0.0792-0.28867 0.0792-0.45413"/>
  <path d="m253.16 313.74-0.66008-1.901h-2.8357l-0.66008 1.901h-1.5578l2.7142-7.4404h1.8376l2.7037 7.4404h-1.5419m-1.7426-5.212c-0.0422-0.1232-0.0845-0.24642-0.12673-0.36964-0.0387-0.12673-0.0739-0.24114-0.10561-0.34324-0.0282-0.10561-0.0528-0.19186-0.0739-0.25875-0.0176-0.0669-0.0282-0.10385-0.0317-0.11089-4e-3 0.0106-0.0141 0.0493-0.0317 0.11617-0.0176 0.0669-0.0422 0.15138-0.0739 0.25347-0.0282 0.1021-0.0634 0.21651-0.10561 0.34324-0.0387 0.12322-0.0792 0.24644-0.12146 0.36964l-0.734 2.1387h2.1386l-0.73401-2.1387"/>
  <path d="m261.89 313.74v-4.5096c-1e-5 -0.17954 2e-3 -0.36436 5e-3 -0.55447 7e-3 -0.1901 0.0141-0.36436 0.0211-0.52278 0.0106-0.18658 0.0194-0.36788 0.0264-0.5439-0.0739 0.27811-0.14435 0.54215-0.21123 0.79209-0.0282 0.10562-0.0581 0.21475-0.0898 0.3274-0.0317 0.11266-0.0634 0.22179-0.095 0.3274-0.0282 0.10561-0.0563 0.20418-0.0845 0.29571-0.0282 0.0915-0.0528 0.17075-0.0739 0.23763l-1.3413 4.1506h-1.1089l-1.3413-4.1506c-0.0211-0.0669-0.0458-0.14609-0.0739-0.23763-0.0247-0.0915-0.0528-0.1901-0.0845-0.29571-0.0282-0.10561-0.0581-0.21474-0.0898-0.3274-0.0317-0.11265-0.0634-0.22178-0.0951-0.3274-0.0704-0.24994-0.14434-0.51398-0.22179-0.79209 0.0106 0.20419 0.0211 0.40485 0.0317 0.60199 7e-3 0.16898 0.0141 0.34676 0.0211 0.53334 7e-3 0.18659 0.0106 0.34853 0.0106 0.48582v4.5096h-1.3835v-7.4404h2.0858l1.3307 4.1611c0.0352 0.10914 0.0722 0.24291 0.11089 0.40133 0.0422 0.15842 0.0827 0.31156 0.12145 0.45941 0.0422 0.1725 0.088 0.35205 0.1373 0.53863 0.0493-0.18306 0.0968-0.35908 0.14258-0.52807 0.0211-0.0739 0.0422-0.14961 0.0634-0.22706 0.0211-0.0774 0.0422-0.15314 0.0634-0.22707 0.0211-0.0739 0.0422-0.14433 0.0634-0.21122 0.0211-0.0669 0.0405-0.12674 0.0581-0.17955l1.3096-4.1875h2.0753v7.4404h-1.3835"/>
  <path d="m269.99 313.74-0.66008-1.901h-2.8357l-0.66008 1.901h-1.5578l2.7142-7.4404h1.8376l2.7037 7.4404h-1.5419m-1.7426-5.212c-0.0423-0.1232-0.0845-0.24642-0.12674-0.36964-0.0387-0.12673-0.0739-0.24114-0.10561-0.34324-0.0282-0.10561-0.0528-0.19186-0.0739-0.25875-0.0176-0.0669-0.0282-0.10385-0.0317-0.11089-4e-3 0.0106-0.0141 0.0493-0.0317 0.11617-0.0176 0.0669-0.0423 0.15138-0.0739 0.25347-0.0282 0.1021-0.0634 0.21651-0.10561 0.34324-0.0387 0.12322-0.0792 0.24644-0.12145 0.36964l-0.73401 2.1387h2.1386l-0.734-2.1387"/>
  <path d="m277.08 313.74-3.2423-5.7295c0.0176 0.15491 0.0335 0.30981 0.0475 0.4647 0.0141 0.13378 0.0246 0.27812 0.0317 0.43301 0.0106 0.1549 0.0158 0.30276 0.0159 0.44357v4.3882h-1.3835v-7.4404h1.7796l3.2898 5.777c-0.0176-0.14785-0.0335-0.30275-0.0475-0.46469-0.0141-0.1373-0.0264-0.2922-0.037-0.4647-7e-3 -0.1725-0.0106-0.34676-0.0106-0.52278v-4.3248h1.3835v7.4404h-1.8271"/>
  <path d="m214.56 341.86c-1e-5 0.61959-0.0933 1.1653-0.27987 1.637-0.18659 0.46822-0.44182 0.86074-0.76569 1.1776-0.32389 0.31684-0.70761 0.55622-1.1512 0.71816-0.44005 0.16194-0.91531 0.24291-1.4258 0.24291h-3.01v-7.4404h2.6931c0.57734 0 1.1072 0.0722 1.5895 0.2165 0.48229 0.14435 0.8977 0.36613 1.2462 0.66536 0.34852 0.29924 0.61959 0.67945 0.81322 1.1406 0.19361 0.46118 0.29042 1.0086 0.29043 1.6423m-1.5683 0c-1e-5 -0.43301-0.0599-0.80441-0.17954-1.1142-0.11618-0.3098-0.27988-0.56326-0.4911-0.76041-0.21123-0.20066-0.4647-0.34852-0.76041-0.44358-0.2922-0.095-0.61608-0.14257-0.97163-0.14257h-1.1036v5.0324h1.3202c0.31331 0 0.60199-0.0546 0.86602-0.1637 0.26755-0.10913 0.49814-0.27107 0.69176-0.48582 0.19714-0.21826 0.35028-0.48757 0.45942-0.80793 0.11265-0.32036 0.16897-0.69176 0.16898-1.1142"/>
  <path d="m221.01 345.64-0.66008-1.901h-2.8357l-0.66008 1.901h-1.5578l2.7142-7.4404h1.8376l2.7037 7.4404h-1.5419m-1.7426-5.212c-0.0422-0.12321-0.0845-0.24643-0.12673-0.36965-0.0387-0.12672-0.0739-0.24114-0.10561-0.34324-0.0282-0.1056-0.0528-0.19185-0.0739-0.25875-0.0176-0.0669-0.0282-0.10384-0.0317-0.11089-4e-3 0.0106-0.0141 0.0493-0.0317 0.11617-0.0176 0.0669-0.0422 0.15139-0.0739 0.25347-0.0282 0.1021-0.0634 0.21652-0.10561 0.34324-0.0387 0.12322-0.0792 0.24644-0.12146 0.36965l-0.734 2.1386h2.1386l-0.73401-2.1386"/>
  <path d="m226.12 339.4v6.2364h-1.5578v-6.2364h-2.4027v-1.204h6.3684v1.204h-2.408"/>
  <path d="m229.37 345.64v-7.4404h5.8509v1.204h-4.2932v1.8693h3.971v1.204h-3.971v1.9591h4.5096v1.204h-6.0674"/>
  <path d="m23.09 343.49c-7e-6 0.33796-0.06161 0.646-0.18482 0.92411-0.12322 0.27459-0.31508 0.51046-0.57559 0.7076-0.257 0.19714-0.58792 0.35028-0.99276 0.45941-0.40133 0.10562-0.88011 0.15842-1.4363 0.15842-0.49286 0-0.92763-0.044-1.3043-0.13201-0.37669-0.088-0.70056-0.21827-0.97164-0.39077-0.26755-0.1725-0.48582-0.38548-0.6548-0.63895-0.16546-0.25699-0.28515-0.55095-0.35908-0.88187l1.505-0.24819c0.04224 0.16546 0.10385 0.31684 0.18482 0.45414 0.08097 0.13729 0.19186 0.25699 0.33268 0.35908 0.14433 0.0986 0.32212 0.17602 0.53334 0.23235 0.21474 0.0528 0.47349 0.0792 0.77625 0.0792 0.52806 0 0.93114-0.0792 1.2093-0.23763 0.28163-0.16194 0.42244-0.41365 0.42245-0.75513-5e-6 -0.20418-0.05633-0.3714-0.16898-0.50166-0.11266-0.13025-0.26228-0.23763-0.44885-0.32212-0.18659-0.0845-0.40133-0.15489-0.64424-0.21122-0.24291-0.0563-0.49638-0.11089-0.76041-0.1637-0.21123-0.0493-0.42245-0.10033-0.63368-0.15314-0.21123-0.0528-0.41365-0.11617-0.60727-0.1901-0.1901-0.0739-0.36788-0.16194-0.53334-0.26403s-0.3098-0.22707-0.43301-0.37493c-0.1197-0.15137-0.21475-0.32739-0.28515-0.52806-0.06689-0.20066-0.10033-0.43653-0.10033-0.7076 0-0.36964 0.07393-0.68648 0.22179-0.95051s0.35204-0.47877 0.61255-0.64424c0.26403-0.16897 0.57735-0.29219 0.93995-0.36964 0.3626-0.0774 0.75864-0.11617 1.1881-0.11618 0.48581 1e-5 0.90122 0.0387 1.2462 0.11618 0.34852 0.0739 0.63895 0.18835 0.8713 0.34324 0.23586 0.1549 0.42068 0.35029 0.55446 0.58615 0.13729 0.23235 0.23762 0.50518 0.301 0.81849l-1.5103 0.20595c-0.07745-0.32036-0.23587-0.5615-0.47526-0.72345-0.23587-0.16193-0.57559-0.2429-1.0192-0.24291-0.2746 1e-5 -0.50342 0.0247-0.68648 0.0739-0.17954 0.0458-0.32388 0.10914-0.43301 0.1901-0.10562 0.081-0.1813 0.17603-0.22707 0.28516-0.04577 0.10562-0.06865 0.21827-0.06865 0.33796-2e-6 0.18306 0.044 0.33444 0.13202 0.45413 0.08801 0.11618 0.21122 0.21475 0.36964 0.29572 0.15842 0.0774 0.34676 0.14434 0.56503 0.20066 0.22178 0.0528 0.46469 0.10738 0.72873 0.1637 0.23234 0.0493 0.46293 0.10209 0.69176 0.15842 0.22882 0.0528 0.44709 0.11617 0.6548 0.1901 0.2077 0.0739 0.40132 0.1637 0.58087 0.26931 0.17954 0.10562 0.33443 0.23587 0.4647 0.39077 0.13377 0.15138 0.23762 0.33268 0.31156 0.5439 0.07744 0.21123 0.11617 0.46118 0.11617 0.74985"/>
  <path d="m31.481 341.88c-8e-6 0.58087-0.08626 1.1089-0.25875 1.5842-0.17251 0.47525-0.4207 0.88186-0.74457 1.2198-0.32388 0.33796-0.71993 0.59847-1.1881 0.78153-0.4647 0.18306-0.991 0.27459-1.5789 0.27459-0.62312 0-1.1688-0.0951-1.637-0.28515-0.4647-0.19362-0.8537-0.46117-1.167-0.80266-0.31332-0.34499-0.54918-0.75336-0.7076-1.2251-0.1549-0.47173-0.23235-0.98747-0.23235-1.5472-1e-6 -0.58086 0.08097-1.1054 0.24291-1.5736 0.16546-0.4682 0.40661-0.86601 0.72344-1.1934 0.32036-0.33091 0.71288-0.58438 1.1776-0.7604 0.46821-0.17954 1.0051-0.26931 1.6106-0.26932 0.60551 1e-5 1.1406 0.0898 1.6053 0.26932 0.46821 0.17954 0.86073 0.43477 1.1776 0.76569 0.32035 0.33092 0.56326 0.73049 0.72873 1.1987 0.16545 0.4647 0.24818 0.98572 0.24819 1.5631m-1.5895 0c-6e-6 -0.39076-0.04753-0.7428-0.14258-1.0561-0.09154-0.31684-0.22883-0.58791-0.41189-0.81322-0.18307-0.2253-0.41013-0.3978-0.6812-0.5175-0.26756-0.12321-0.57911-0.18482-0.93467-0.18482-0.36261 0-0.6812 0.0616-0.95579 0.18482-0.27107 0.1197-0.49814 0.2922-0.6812 0.5175-0.18306 0.22531-0.32036 0.49638-0.41189 0.81322-0.09153 0.31332-0.1373 0.66536-0.1373 1.0561-2e-6 0.38725 0.04576 0.74281 0.1373 1.0667 0.09505 0.32036 0.2341 0.59672 0.41717 0.82906 0.18306 0.23235 0.41012 0.41365 0.6812 0.54391 0.27107 0.13025 0.58438 0.19538 0.93995 0.19538 0.3802 0 0.7076-0.0651 0.9822-0.19538 0.27459-0.13378 0.49989-0.31684 0.67592-0.54919 0.17954-0.23586 0.31155-0.51398 0.39605-0.83434 0.08448-0.32387 0.12673-0.67591 0.12673-1.0561"/>
  <path d="m35.748 345.74c-0.4647 0-0.89067-0.0546-1.2779-0.1637-0.38725-0.11265-0.72169-0.28515-1.0033-0.5175-0.27811-0.23586-0.49638-0.53686-0.6548-0.90298-0.1549-0.36612-0.23235-0.80266-0.23235-1.3096v-4.6522h1.5578v4.5308c-2e-6 0.31332 0.03872 0.58439 0.11617 0.81321 0.07745 0.22531 0.18834 0.41189 0.33268 0.55975 0.14433 0.14434 0.31859 0.25171 0.52278 0.32212 0.20418 0.0669 0.43125 0.10033 0.6812 0.10033 0.25347 0 0.48581-0.0352 0.69704-0.10561 0.21474-0.0739 0.3978-0.18658 0.54918-0.33796 0.15489-0.15138 0.27459-0.34324 0.35908-0.57559 0.08448-0.23235 0.12673-0.5087 0.12674-0.82906v-4.478h1.5578v4.573c-8e-6 0.51047-0.08274 0.95228-0.24819 1.3254-0.16547 0.37316-0.39605 0.68296-0.69176 0.92939-0.29572 0.24291-0.64776 0.42421-1.0561 0.5439-0.40485 0.11618-0.85018 0.17426-1.336 0.17426"/>
  <path d="m45 345.64-3.2423-5.7295c0.0176 0.1549 0.03344 0.3098 0.04753 0.46469 0.01408 0.13378 0.02464 0.27812 0.03168 0.43301 0.01056 0.15491 0.01584 0.30276 0.01584 0.44357v4.3882h-1.3835v-7.4404h1.7796l3.2898 5.777c-0.01761-0.14785-0.03345-0.30275-0.04753-0.46469-0.01409-0.13729-0.02641-0.29219-0.03697-0.46469-7e-3 -0.1725-0.01057-0.34676-0.01056-0.52279v-4.3248h1.3835v7.4404h-1.8271"/>
  <path d="m54.917 341.86c-7e-6 0.61959-0.0933 1.1653-0.27987 1.637-0.18659 0.46822-0.44182 0.86074-0.76569 1.1776-0.32388 0.31684-0.70761 0.55622-1.1512 0.71816-0.44006 0.16194-0.91531 0.24291-1.4258 0.24291h-3.01v-7.4404h2.6931c0.57734 0 1.1072 0.0722 1.5895 0.2165 0.48229 0.14435 0.8977 0.36613 1.2462 0.66536 0.34852 0.29924 0.61959 0.67945 0.81322 1.1406 0.19362 0.46118 0.29043 1.0086 0.29043 1.6423m-1.5683 0c-6e-6 -0.43301-0.05985-0.80441-0.17954-1.1142-0.11618-0.3098-0.27988-0.56326-0.4911-0.76041-0.21123-0.20066-0.4647-0.34852-0.76041-0.44358-0.2922-0.095-0.61608-0.14257-0.97163-0.14257h-1.1036v5.0324h1.3202c0.31331 0 0.60199-0.0546 0.86602-0.1637 0.26755-0.10913 0.49813-0.27107 0.69176-0.48582 0.19714-0.21826 0.35028-0.48757 0.45941-0.80793 0.11265-0.32036 0.16897-0.69176 0.16898-1.1142"/>
  <path d="m22.731 374.85c-7e-6 0.32036-0.05457 0.63016-0.1637 0.92939-0.10562 0.29572-0.26932 0.55799-0.4911 0.78681-0.22179 0.22883-0.50342 0.41189-0.8449 0.54919-0.34148 0.13378-0.74633 0.20066-1.2145 0.20066h-1.8482v2.6192h-1.5578v-7.4404h3.3426c0.47525 1e-5 0.88714 0.0581 1.2357 0.17427 0.34852 0.11266 0.63719 0.27283 0.86602 0.48053 0.22882 0.20771 0.3978 0.4559 0.50694 0.74457 0.11265 0.28868 0.16897 0.60728 0.16898 0.95579m-1.5683 0.0264c-5e-6 -0.38372-0.11618-0.67415-0.34852-0.8713-0.22883-0.20066-0.57383-0.30099-1.035-0.30099h-1.6106v2.4132h1.6528c0.23234 0 0.43125-0.0299 0.59671-0.0898 0.16898-0.0598 0.30803-0.14433 0.41717-0.25347 0.11265-0.10913 0.19538-0.23938 0.24819-0.39077 0.0528-0.15489 0.0792-0.32387 0.07921-0.50694"/>
  <path d="m28.947 379.94-1.7268-2.8251h-1.8271v2.8251h-1.5578v-7.4404h3.7176c0.46469 1e-5 0.86954 0.0528 1.2145 0.15842 0.34852 0.1021 0.63895 0.24996 0.8713 0.44358 0.23234 0.1901 0.40484 0.42245 0.5175 0.69704 0.11617 0.27108 0.17425 0.57735 0.17426 0.91883-7e-6 0.27811-0.04225 0.53334-0.12674 0.76569-0.08098 0.22883-0.19539 0.43301-0.34324 0.61255-0.14434 0.17954-0.31684 0.33092-0.5175 0.45413-0.20067 0.1197-0.41894 0.20771-0.6548 0.26403l2.0119 3.1261h-1.7532m-0.18482-5.1592c-6e-6 -0.36259-0.1197-0.63191-0.35908-0.80793-0.23587-0.17602-0.57383-0.26403-1.0139-0.26403h-1.9961v2.1967h2.0383c0.23234 1e-5 0.43125-0.0264 0.59671-0.0792 0.16898-0.0563 0.30627-0.13378 0.41189-0.23235 0.10913-0.10209 0.1901-0.22178 0.24291-0.35908 0.0528-0.1373 0.0792-0.28867 0.07921-0.45414"/>
  <path d="m38.885 376.18c-8e-6 0.58087-0.08626 1.1089-0.25875 1.5842-0.17251 0.47526-0.4207 0.88187-0.74457 1.2198-0.32388 0.33796-0.71993 0.59847-1.1881 0.78153-0.4647 0.18306-0.991 0.27459-1.5789 0.27459-0.62312 0-1.1688-0.0951-1.637-0.28515-0.4647-0.19362-0.8537-0.46118-1.167-0.80266-0.31332-0.345-0.54919-0.75336-0.7076-1.2251-0.1549-0.47173-0.23235-0.98747-0.23235-1.5472 0-0.58087 0.08097-1.1054 0.24291-1.5736 0.16546-0.46821 0.40661-0.86601 0.72344-1.1934 0.32036-0.33091 0.71288-0.58438 1.1776-0.76041 0.46821-0.17953 1.0051-0.2693 1.6106-0.26931 0.60551 1e-5 1.1406 0.0898 1.6053 0.26931 0.46821 0.17955 0.86073 0.43478 1.1776 0.76569 0.32035 0.33093 0.56326 0.73049 0.72872 1.1987 0.16545 0.4647 0.24818 0.98572 0.24819 1.5631m-1.5895 0c-6e-6 -0.39076-0.04753-0.74281-0.14258-1.0561-0.09154-0.31683-0.22883-0.5879-0.41189-0.81321-0.18307-0.2253-0.41013-0.3978-0.6812-0.5175-0.26756-0.12321-0.57911-0.18482-0.93467-0.18482-0.36261 0-0.6812 0.0616-0.95579 0.18482-0.27108 0.1197-0.49814 0.2922-0.6812 0.5175-0.18306 0.22531-0.32036 0.49638-0.41189 0.81321-0.09153 0.31332-0.1373 0.66537-0.1373 1.0561-3e-6 0.38725 0.04576 0.74281 0.1373 1.0667 0.09505 0.32036 0.2341 0.59672 0.41717 0.82906 0.18306 0.23235 0.41012 0.41365 0.6812 0.5439 0.27107 0.13026 0.58438 0.19539 0.93995 0.19539 0.3802 0 0.7076-0.0651 0.9822-0.19539 0.27459-0.13377 0.49989-0.31683 0.67592-0.54918 0.17954-0.23587 0.31155-0.51398 0.39605-0.83434 0.08448-0.32387 0.12673-0.67591 0.12674-1.0561"/>
  <path d="m46.69 376.16c-8e-6 0.61959-0.0933 1.1652-0.27987 1.637-0.18659 0.46821-0.44182 0.86074-0.76569 1.1776-0.32388 0.31683-0.70761 0.55622-1.1512 0.71816-0.44006 0.16194-0.91531 0.24291-1.4258 0.24291h-3.01v-7.4404h2.6931c0.57734 1e-5 1.1072 0.0722 1.5895 0.21651 0.48229 0.14434 0.8977 0.36613 1.2462 0.66536 0.34851 0.29924 0.61959 0.67944 0.81322 1.1406 0.19362 0.46118 0.29043 1.0086 0.29043 1.6423m-1.5683 0c-6e-6 -0.43301-0.05985-0.80441-0.17954-1.1142-0.11618-0.30979-0.27988-0.56326-0.4911-0.7604-0.21123-0.20066-0.4647-0.34852-0.76041-0.44358-0.2922-0.095-0.61608-0.14257-0.97163-0.14257h-1.1036v5.0324h1.3202c0.31331 0 0.60199-0.0546 0.86602-0.1637 0.26755-0.10913 0.49813-0.27107 0.69176-0.48582 0.19714-0.21826 0.35028-0.48757 0.45941-0.80793 0.11265-0.32036 0.16897-0.69176 0.16898-1.1142"/>
  <path d="m47.883 379.94v-1.6106h1.5261v1.6106h-1.5261"/>
  <path d="m54.346 378.82c0.29219 0 0.5439-0.0405 0.75513-0.12146 0.21474-0.0845 0.39956-0.19362 0.55446-0.3274 0.15841-0.13377 0.28867-0.28515 0.39077-0.45413 0.10561-0.16898 0.19186-0.33972 0.25875-0.51222l1.3571 0.51222c-0.10914 0.26755-0.25172 0.52982-0.42773 0.78681-0.17603 0.25699-0.39605 0.48406-0.66008 0.6812-0.26404 0.19715-0.57911 0.35733-0.94523 0.48054-0.36261 0.11969-0.79034 0.17954-1.2832 0.17954-0.64424 0-1.2022-0.0951-1.674-0.28515-0.47174-0.19362-0.8625-0.46118-1.1723-0.80266-0.30628-0.345-0.5351-0.75336-0.68648-1.2251-0.14786-0.47173-0.22179-0.98747-0.22179-1.5472-1e-6 -0.58087 0.07393-1.1054 0.22179-1.5736 0.15138-0.46821 0.37844-0.86601 0.6812-1.1934 0.30275-0.33091 0.68472-0.58438 1.1459-0.76041 0.46469-0.17953 1.0104-0.2693 1.637-0.26931 0.48581 1e-5 0.91002 0.0511 1.2726 0.15314 0.36612 0.1021 0.68119 0.24644 0.94523 0.43301 0.26754 0.18307 0.48757 0.40133 0.66008 0.6548 0.17601 0.24995 0.31331 0.52631 0.41189 0.82905l-1.373 0.37493c-0.04929-0.15841-0.12498-0.30979-0.22707-0.45413-0.1021-0.14786-0.23235-0.27811-0.39077-0.39077-0.1549-0.11265-0.33796-0.20242-0.54918-0.26931-0.21123-0.0704-0.45062-0.10561-0.71816-0.10561-0.37669 0-0.70056 0.0616-0.97163 0.18482-0.27107 0.1197-0.49462 0.2922-0.67064 0.5175-0.1725 0.22531-0.301 0.49638-0.38549 0.81321-0.08097 0.31332-0.12146 0.66537-0.12145 1.0561-2e-6 0.38725 0.04048 0.74281 0.12145 1.0667 0.08449 0.32036 0.21474 0.59672 0.39077 0.82906 0.17602 0.23235 0.40132 0.41365 0.67592 0.5439 0.27811 0.13026 0.61079 0.19539 0.99804 0.19539"/>
  <path d="m65.922 376.18c-8e-6 0.58087-0.08626 1.1089-0.25875 1.5842-0.17251 0.47526-0.4207 0.88187-0.74457 1.2198-0.32388 0.33796-0.71993 0.59847-1.1881 0.78153-0.4647 0.18306-0.991 0.27459-1.5789 0.27459-0.62312 0-1.1688-0.0951-1.637-0.28515-0.4647-0.19362-0.8537-0.46118-1.167-0.80266-0.31332-0.345-0.54918-0.75336-0.7076-1.2251-0.1549-0.47173-0.23235-0.98747-0.23235-1.5472 0-0.58087 0.08097-1.1054 0.24291-1.5736 0.16546-0.46821 0.40661-0.86601 0.72344-1.1934 0.32036-0.33091 0.71288-0.58438 1.1776-0.76041 0.46821-0.17953 1.0051-0.2693 1.6106-0.26931 0.60551 1e-5 1.1406 0.0898 1.6053 0.26931 0.46821 0.17955 0.86074 0.43478 1.1776 0.76569 0.32035 0.33093 0.56326 0.73049 0.72873 1.1987 0.16545 0.4647 0.24818 0.98572 0.24819 1.5631m-1.5895 0c-7e-6 -0.39076-0.04753-0.74281-0.14258-1.0561-0.09154-0.31683-0.22883-0.5879-0.41189-0.81321-0.18307-0.2253-0.41013-0.3978-0.6812-0.5175-0.26756-0.12321-0.57911-0.18482-0.93467-0.18482-0.36261 0-0.6812 0.0616-0.95579 0.18482-0.27108 0.1197-0.49814 0.2922-0.6812 0.5175-0.18306 0.22531-0.32036 0.49638-0.41189 0.81321-0.09153 0.31332-0.1373 0.66537-0.1373 1.0561-2e-6 0.38725 0.04576 0.74281 0.1373 1.0667 0.09505 0.32036 0.2341 0.59672 0.41717 0.82906 0.18306 0.23235 0.41012 0.41365 0.6812 0.5439 0.27107 0.13026 0.58438 0.19539 0.93995 0.19539 0.3802 0 0.7076-0.0651 0.9822-0.19539 0.27459-0.13377 0.49989-0.31683 0.67592-0.54918 0.17954-0.23587 0.31155-0.51398 0.39605-0.83434 0.08448-0.32387 0.12673-0.67591 0.12674-1.0561"/>
  <path d="m67.104 379.94v-1.6106h1.5261v1.6106h-1.5261"/>
 </g>
 <path transform="matrix(.30051 -.00067531 .00067531 .30051 4.7149 2.2065)" d="m375.57 124.16a5.2762 5.0364 0 1 1 -10.552 0 5.2762 5.0364 0 1 1 10.552 0z" fill="#888"/>
 <path transform="matrix(.31 -.00069662 .00069662 .31 2.7239 2.5066)" d="m47.812 4.75c-12.257 0.067315-23.421 8.0221-26.969 20.344l-4.625 16.031 336.06 96.688c0.012 2e-3 0.0197-2e-3 0.0312 0 0.13585 0.0282 0.24021 0.0639 0.34375 0.0937 14.895 4.288 29.689-1.9224 33.094-13.75 1.4022-4.8707 0.67106-9.9591-1.7188-14.562a0.39248 0.39248 0 0 1 -0.0312 -0.0937 0.39248 0.39248 0 0 1 -0.0312 -0.0937c-3.4814-6.5956-9.5426-11.848-17.344-14.094l-310.62-89.438c-1.893-0.54496-3.8342-0.8783-5.7188-1.0312-0.82486-0.066944-1.6516-0.098238-2.4688-0.09375z" fill="none" stroke="url(#f)"/>
 <path d="m18.281 4.4375c-0.5591-0.049315-1.1236-0.031957-1.6562 0.03125-3.2212 0.38222-6.0235 2.6262-6.9688 5.9375l-1.3125 4.5 103.75 29.594 0.0625 0.03125c0.0415 0.0099 0.0955 0.02283 0.125 0.03125 4.4226 1.2625 8.6962-0.60536 9.6562-3.9688 0.3966-1.3894 0.1944-2.826-0.5-4.1562-1.0193-1.9624-2.8031-3.5247-5.125-4.1875l-96.344-27.5c-0.55944-0.15969-1.1284-0.26319-1.6875-0.3125z" fill="none" stroke="url(#g)"/>
</svg>
