<?xml version="1.0" standalone="no"?>
<!DOCTYPE svg PUBLIC "-//W3C//DTD SVG 20010904//EN"
 "http://www.w3.org/TR/2001/REC-SVG-20010904/DTD/svg10.dtd">
<svg version="1.0" xmlns="http://www.w3.org/2000/svg"
 width="512.000000pt" height="512.000000pt" viewBox="0 0 512.000000 512.000000"
 preserveAspectRatio="xMidYMid meet">
<metadata>
Created by potrace 1.16, written by Peter Selinger 2001-2019
</metadata>
<g transform="translate(0.000000,512.000000) scale(0.100000,-0.100000)"
fill="#ff0000" stroke="none">
<path d="M20 4338 c4 -4 218 -135 254 -156 5 -3 6 0 2 6 -7 12 -212 137 -242
148 -10 4 -17 5 -14 2z"/>
<path d="M190 4317 c0 -9 690 -439 931 -580 l97 -56 3 -89 c5 -116 27 -151
142 -226 129 -83 118 -49 115 -376 l-3 -281 -43 -40 c-34 -32 -49 -40 -74 -37
-33 3 -42 14 -54 63 l-8 30 -4 -29 c-5 -39 26 -80 65 -84 24 -2 40 6 79 41
l49 45 3 292 c3 336 11 306 -99 371 -130 77 -162 127 -158 247 l2 75 -234 142
c-129 77 -349 212 -489 300 -311 193 -320 198 -320 192z"/>
<path d="M199 4123 c13 -10 172 -100 353 -200 181 -99 328 -185 327 -189 -2
-9 32 -30 136 -88 28 -15 41 -20 30 -11 -11 9 -53 35 -93 57 -40 22 -71 42
-68 45 6 6 71 -28 181 -94 50 -29 77 -42 60 -29 -16 14 -70 48 -120 75 -49 27
-252 138 -450 246 -388 213 -392 215 -356 188z"/>
<path d="M4552 4067 c-367 -236 -438 -281 -495 -311 -34 -19 -93 -52 -132 -75
-78 -46 -149 -56 -180 -25 -21 21 -15 36 21 54 16 8 81 47 144 86 157 97 148
94 248 94 l90 0 98 65 c55 36 96 65 92 65 -4 0 -40 -21 -80 -47 -106 -67 -131
-76 -199 -68 -78 9 -113 -4 -238 -88 -57 -38 -125 -78 -152 -89 -52 -22 -64
-39 -48 -69 21 -39 97 -51 150 -23 17 8 33 13 35 11 3 -2 -51 -32 -118 -66
-68 -35 -134 -74 -148 -87 l-25 -24 -3 -311 -3 -311 23 -37 c13 -20 30 -51 37
-69 17 -40 65 -82 94 -82 44 0 231 59 244 76 10 13 12 70 11 228 l-2 211 -6
-213 c-4 -164 -8 -215 -19 -221 -24 -15 -220 -63 -243 -59 -13 2 -32 18 -43
36 -11 18 -35 55 -53 83 -29 44 -33 57 -29 102 l3 52 2 -53 c2 -47 5 -54 35
-72 17 -11 39 -20 47 -20 8 0 -3 10 -25 23 -39 22 -40 25 -46 87 -4 36 -7 173
-8 306 -1 285 -19 248 175 352 167 88 247 140 239 152 -4 6 -2 9 3 8 10 -3 83
42 320 197 92 61 195 128 229 148 53 32 84 57 71 57 -2 0 -54 -33 -116 -73z
m-522 -342 c0 -8 -111 -77 -116 -72 -2 2 22 20 53 40 63 39 63 39 63 32z"/>
<path d="M5060 4089 c-30 -17 -217 -114 -415 -217 -508 -263 -624 -324 -595
-316 31 8 138 61 211 105 30 17 140 74 244 127 161 80 601 309 614 319 2 2 2
5 0 7 -3 3 -29 -9 -59 -25z"/>
<path d="M785 4103 c12 -12 180 -130 283 -198 41 -27 98 -76 127 -110 l53 -60
1 -102 c1 -56 6 -114 12 -130 11 -30 63 -88 92 -105 10 -5 -4 13 -32 39 -30
29 -51 58 -51 71 0 19 10 15 93 -38 52 -33 105 -72 118 -86 l24 -26 -1 -256
-2 -257 10 170 c11 213 6 336 -16 369 -14 22 -213 154 -226 149 -3 -1 -4 40
-2 90 l3 92 -52 67 c-43 57 -79 86 -233 191 -184 126 -219 148 -201 130z"/>
<path d="M4738 4058 c-43 -23 -76 -43 -74 -46 2 -2 42 17 87 42 46 25 80 46
74 46 -5 0 -45 -19 -87 -42z"/>
<path d="M50 3994 c70 -41 187 -96 166 -79 -24 18 -191 105 -203 105 -4 0 12
-12 37 -26z"/>
<path d="M3735 3885 c-102 -79 -161 -132 -163 -145 -2 -12 -31 -42 -65 -68
-33 -26 -72 -58 -86 -71 -26 -23 -26 -23 9 1 102 72 141 105 147 126 3 14 64
68 162 144 180 139 178 138 166 138 -6 -1 -82 -57 -170 -125z"/>
<path d="M4815 3839 c-357 -177 -386 -189 -467 -189 -58 0 -72 -5 -237 -91
-97 -50 -182 -98 -188 -107 -10 -12 -12 -89 -11 -321 l3 -306 2 307 3 307 28
19 c15 10 98 56 186 100 149 77 163 82 221 82 34 0 80 6 101 14 78 27 699 341
664 335 -3 0 -140 -68 -305 -150z"/>
<path d="M0 3942 c0 -19 711 -346 738 -339 15 3 15 5 -3 12 -55 22 -265 119
-481 221 -133 63 -244 114 -248 114 -3 0 -6 -4 -6 -8z"/>
<path d="M4495 3905 c-33 -19 -55 -34 -50 -35 12 0 115 58 115 65 0 8 -1 7
-65 -30z"/>
<path d="M4995 3873 c-60 -31 -218 -107 -350 -168 -274 -128 -411 -197 -440
-220 -11 -9 44 16 122 55 78 38 209 101 290 139 329 153 522 251 493 250 -3 0
-54 -25 -115 -56z"/>
<path d="M1023 3894 c-8 -21 13 -42 28 -27 13 13 5 43 -11 43 -6 0 -13 -7 -17
-16z"/>
<path d="M4423 3807 c-84 -45 -150 -83 -148 -85 4 -4 226 111 290 150 74 44
-3 9 -142 -65z"/>
<path d="M3184 3675 c0 -115 2 -161 3 -102 2 59 2 154 0 210 -1 56 -3 8 -3
-108z"/>
<path d="M1265 3830 c-4 -6 -3 -16 3 -22 6 -6 12 -6 17 2 4 6 3 16 -3 22 -6 6
-12 6 -17 -2z"/>
<path d="M3062 3760 c-1 -47 -6 -92 -11 -99 -8 -12 -65 -16 -323 -21 l-313 -6
311 -2 c237 -2 314 1 327 11 15 10 17 26 14 107 l-3 95 -2 -85z"/>
<path d="M4311 3791 c-51 -27 -98 -54 -105 -61 -12 -12 183 87 199 101 16 16
1 9 -94 -40z"/>
<path d="M530 3755 c36 -19 70 -34 75 -34 6 0 -19 15 -55 34 -36 19 -69 34
-75 34 -5 0 19 -15 55 -34z"/>
<path d="M329 3685 c73 -36 135 -64 137 -62 4 4 -239 120 -260 124 -6 2 49
-27 123 -62z"/>
<path d="M2897 3743 c-13 -12 -7 -23 13 -23 11 0 20 7 20 15 0 15 -21 21 -33
8z"/>
<path d="M4938 3658 l-167 -71 -3 -60 -3 -60 -275 -112 c-330 -134 -350 -144
-373 -187 -10 -18 -29 -48 -42 -67 -24 -32 -25 -40 -23 -160 l2 -126 5 130 6
130 44 63 c23 34 55 69 70 77 15 7 151 64 301 124 292 119 290 118 290 53 0
-50 -16 -71 -75 -97 -67 -30 -95 -65 -95 -119 0 -30 3 -37 10 -26 5 8 10 29
10 46 0 36 16 52 86 87 27 14 56 32 62 40 7 8 14 64 17 133 l5 119 62 29 c35
16 105 46 157 67 85 35 132 60 106 58 -6 0 -85 -32 -177 -71z"/>
<path d="M1580 3709 c0 -8 30 -41 67 -74 l67 -60 303 -5 303 -5 85 -85 c47
-46 85 -80 85 -75 0 6 -37 49 -83 98 l-82 87 -215 1 c-118 1 -249 0 -290 -1
-41 -1 -85 2 -97 7 -12 4 -49 34 -82 67 -34 32 -61 52 -61 45z"/>
<path d="M3220 3694 c0 -9 5 -14 12 -12 18 6 21 28 4 28 -9 0 -16 -7 -16 -16z"/>
<path d="M1348 3694 c-10 -15 23 -44 196 -173 l149 -111 112 0 c63 0 122 -3
132 -6 15 -5 15 -4 3 5 -9 6 -63 11 -126 11 -127 0 -95 -15 -321 153 -73 54
-133 106 -135 115 -2 11 -6 13 -10 6z"/>
<path d="M2225 3660 c-3 -5 1 -10 9 -10 9 0 16 5 16 10 0 6 -4 10 -9 10 -6 0
-13 -4 -16 -10z"/>
<path d="M3985 3629 c-38 -21 -67 -39 -62 -39 11 0 147 69 147 75 0 9 -14 3
-85 -36z"/>
<path d="M1560 3640 c-12 -23 2 -27 19 -6 8 9 8 16 2 20 -6 4 -15 -3 -21 -14z"/>
<path d="M1280 3636 c0 -3 62 -47 138 -97 75 -51 159 -115 186 -143 27 -28 40
-37 28 -21 -31 46 -67 76 -187 157 -145 99 -165 111 -165 104z"/>
<path d="M3632 3580 c-95 -67 -93 -74 3 -10 66 44 84 60 72 60 -2 0 -36 -23
-75 -50z"/>
<path d="M3921 3571 c-62 -32 -119 -65 -127 -73 -23 -23 -44 -124 -42 -201 l1
-72 7 85 c8 93 21 153 40 175 6 8 60 40 118 70 94 50 136 76 122 75 -3 -1 -56
-27 -119 -59z"/>
<path d="M829 3588 c31 -20 32 -22 15 -35 -15 -11 -15 -13 -2 -13 9 0 18 5 20
11 2 7 26 -2 58 -21 30 -18 135 -72 232 -121 l178 -89 0 -44 0 -44 -339 169
c-186 93 -350 169 -364 169 -44 0 -52 -23 -52 -144 0 -146 2 -149 141 -205 60
-24 147 -59 194 -77 46 -19 80 -30 75 -25 -10 9 -91 43 -275 117 -117 47 -120
51 -120 188 0 114 6 136 41 136 25 0 671 -329 692 -352 15 -18 17 -44 17 -213
0 -213 1 -210 -69 -234 -64 -21 -71 -34 -71 -131 l0 -87 -247 59 c-160 39
-252 65 -260 76 -10 11 -13 73 -13 224 l0 208 -27 30 c-21 22 -74 49 -202 100
-95 39 -178 70 -185 70 -14 -1 94 -48 234 -102 69 -27 116 -52 138 -74 l32
-32 0 -214 c0 -194 2 -217 18 -231 10 -9 120 -40 252 -72 129 -30 242 -58 250
-62 8 -3 28 -7 44 -8 47 -4 76 -43 86 -116 13 -90 13 -521 -1 -556 -6 -15 -10
-30 -10 -33 0 -8 -62 -28 -187 -60 -62 -16 -122 -34 -133 -40 -33 -18 -41 -56
-29 -134 7 -39 10 -96 8 -126 l-3 -54 -140 -64 c-183 -84 -191 -86 -216 -61
-18 18 -19 34 -19 243 0 186 3 226 15 236 8 7 131 36 272 65 142 29 251 54
243 54 -8 1 -127 -21 -264 -48 -162 -32 -254 -55 -265 -66 -14 -13 -16 -49
-19 -232 -5 -329 -6 -328 239 -217 l168 76 7 69 c3 38 12 73 18 77 6 5 93 40
194 77 243 91 242 90 242 160 l0 55 36 0 37 0 -5 -70 c-3 -40 -12 -80 -22 -95
-10 -15 -66 -50 -144 -90 -70 -35 -122 -64 -117 -64 6 -1 65 26 132 58 145 70
156 84 161 188 l4 73 37 0 36 0 -5 -77 c-3 -43 -11 -88 -17 -99 -26 -46 -93
-89 -296 -190 -249 -125 -528 -272 -542 -287 -5 -5 66 30 160 79 93 49 276
143 405 209 210 108 238 124 265 163 25 37 31 56 35 120 l5 77 37 3 c31 3 37
0 41 -20 4 -22 4 -21 6 3 2 37 31 59 77 59 49 0 58 -6 75 -52 7 -21 33 -57 58
-80 l46 -43 -41 45 c-23 25 -45 56 -49 70 -16 58 -32 70 -90 70 -44 0 -57 -4
-67 -20 -11 -17 -24 -20 -95 -20 l-83 0 0 184 c0 178 -1 186 -22 209 -13 14
-39 27 -58 30 l-35 6 43 -19 c26 -12 46 -29 52 -45 5 -14 10 -102 9 -195 l0
-170 -34 0 c-32 0 -35 3 -35 28 0 15 6 34 13 41 7 9 8 11 0 7 -8 -4 -13 25
-17 102 -4 59 -8 121 -9 137 -1 19 -7 30 -17 30 -12 0 -15 -18 -16 -100 l0
-100 3 98 c4 112 23 133 23 25 0 -40 3 -116 6 -169 l7 -96 -45 -6 c-24 -3 -51
-9 -61 -12 -15 -6 -15 -4 -2 22 12 23 15 82 15 289 0 142 -4 279 -9 304 -10
48 -56 100 -90 100 -22 0 -31 35 -31 117 0 44 5 58 25 78 13 14 36 25 50 25
14 0 37 11 50 25 25 24 25 25 25 217 0 157 -3 198 -15 215 -10 14 -12 24 -5
28 15 9 12 58 -5 82 -8 12 -107 69 -219 127 -113 58 -227 119 -254 136 -56 34
-85 41 -33 8z m601 -1816 c0 -34 -5 -54 -17 -65 -10 -8 -76 -36 -146 -62 -70
-25 -162 -59 -204 -75 -42 -16 -80 -27 -84 -24 -5 3 -9 34 -9 69 0 80 2 82
165 125 66 18 136 39 155 48 19 8 55 18 80 22 25 4 48 8 53 9 4 0 7 -21 7 -47z"/>
<path d="M4957 3533 c-76 -30 -136 -57 -134 -60 6 -5 278 96 292 109 21 19
-28 4 -158 -49z"/>
<path d="M170 3556 c0 -2 45 -23 101 -47 55 -23 107 -52 115 -63 8 -11 14 -16
14 -10 0 20 -35 42 -129 83 -98 42 -101 44 -101 37z"/>
<path d="M5 3543 c6 -6 75 -36 155 -67 80 -31 157 -63 173 -71 15 -8 27 -10
27 -5 0 6 -216 97 -355 149 -7 2 -7 0 0 -6z"/>
<path d="M1686 3532 c-3 -6 -1 -14 5 -17 15 -10 25 3 12 16 -7 7 -13 7 -17 1z"/>
<path d="M2035 3530 c-3 -6 1 -13 10 -16 19 -8 30 0 20 15 -8 14 -22 14 -30 1z"/>
<path d="M4427 3400 c-164 -70 -307 -136 -319 -146 -25 -23 -48 -67 -48 -91 1
-10 7 0 15 22 8 22 26 49 40 60 13 12 160 78 325 149 165 70 300 130 300 132
0 9 -24 -1 -313 -126z"/>
<path d="M3482 3454 c-86 -65 -97 -83 -14 -24 31 23 66 48 76 56 11 7 18 16
15 18 -2 3 -37 -20 -77 -50z"/>
<path d="M3859 3481 c-21 -21 -29 -39 -29 -63 0 -24 -8 -41 -25 -56 l-25 -22
6 -257 c4 -142 8 -260 10 -262 2 -2 4 116 4 262 0 256 1 267 20 277 15 8 20
21 20 51 0 33 6 47 31 70 17 16 28 29 24 29 -3 0 -20 -13 -36 -29z"/>
<path d="M2315 3460 c3 -5 10 -10 16 -10 5 0 9 5 9 10 0 6 -7 10 -16 10 -8 0
-12 -4 -9 -10z"/>
<path d="M833 3400 c0 -30 2 -43 4 -27 2 15 2 39 0 55 -2 15 -4 2 -4 -28z"/>
<path d="M1 3416 c8 -8 192 -76 196 -73 2 2 -39 21 -92 41 -89 34 -114 42
-104 32z"/>
<path d="M2117 3404 c-9 -10 2 -24 19 -24 8 0 14 7 14 15 0 15 -21 21 -33 9z"/>
<path d="M2968 3400 l272 -5 28 -27 c68 -66 82 -77 82 -63 0 8 -4 15 -9 15 -6
0 -30 20 -55 45 l-46 45 -273 -2 -272 -2 273 -6z"/>
<path d="M1380 3386 c0 -3 14 -12 30 -21 17 -9 30 -13 30 -11 0 3 -13 12 -30
21 -16 9 -30 13 -30 11z"/>
<path d="M1652 3378 c2 -6 17 -21 32 -32 23 -17 47 -22 142 -26 63 -3 114 -2
114 3 0 4 12 7 26 7 19 0 25 -4 20 -15 -3 -8 -1 -15 4 -15 6 0 10 5 10 10 0 6
137 11 388 12 l387 3 -379 2 c-329 3 -382 5 -397 19 -18 16 -59 11 -59 -7 0
-5 -45 -9 -100 -9 -104 0 -151 13 -163 45 -7 17 -31 21 -25 3z"/>
<path d="M2985 3356 c-16 -13 -56 -31 -88 -40 -33 -9 -62 -25 -70 -36 -11 -19
-24 -20 -350 -20 -378 0 -391 -2 -421 -65 -13 -27 -16 -75 -16 -273 l0 -240
-32 -12 c-67 -24 -63 -6 -66 -258 -2 -205 -1 -232 15 -247 11 -12 26 -15 50
-12 32 6 33 5 33 -31 -1 -63 -56 -112 -127 -112 -71 0 -73 5 -73 221 0 157 -3
191 -15 195 -8 3 -18 4 -22 1 -4 -3 -6 -98 -3 -212 5 -202 5 -207 29 -226 13
-10 36 -19 52 -19 29 0 29 0 29 -61 0 -77 20 -120 70 -148 39 -21 42 -22 459
-19 l419 3 43 30 c79 56 83 73 89 379 3 173 9 271 15 273 6 2 19 -3 30 -10 17
-13 18 -28 16 -200 -2 -220 5 -248 69 -275 l40 -17 0 -73 c0 -124 -27 -152
-146 -152 -70 0 -94 -8 -136 -48 -22 -21 -28 -34 -27 -66 1 -25 3 -31 6 -16 9
57 14 68 40 86 20 14 54 20 121 24 86 5 94 8 122 36 29 28 30 33 32 124 1 59
4 85 9 70 l7 -25 1 28 c1 30 17 37 24 10 2 -10 1 -81 -1 -158 -3 -86 0 -161 7
-196 14 -65 37 -91 171 -187 47 -34 97 -71 113 -83 15 -11 27 -18 27 -15 0 3
-60 49 -132 104 -73 54 -140 107 -148 116 -11 14 -15 65 -20 232 -4 191 -3
217 13 246 15 29 17 68 17 376 0 335 0 344 -20 349 -16 4 -20 14 -20 49 0 60
-31 94 -92 101 -40 5 -50 2 -72 -20 -20 -21 -26 -36 -26 -72 0 -86 29 -114
118 -115 l62 0 0 -333 c0 -246 -3 -336 -12 -345 -19 -19 -76 -14 -98 8 -19 19
-20 33 -20 219 0 188 -1 200 -21 226 -16 19 -28 26 -45 22 l-24 -4 0 347 c0
415 8 389 -116 397 -49 3 -84 2 -87 -4 -4 -6 24 -12 74 -16 44 -3 86 -11 95
-18 13 -10 14 -91 12 -623 -3 -689 0 -661 -81 -714 l-41 -27 -408 -3 c-446 -3
-461 -1 -487 54 -16 36 -15 144 2 144 27 0 96 71 107 108 11 40 14 270 4 296
-3 9 -12 16 -20 16 -16 0 -18 -12 -4 -26 6 -6 7 -47 3 -106 -6 -94 -7 -96 -32
-101 -50 -10 -52 -2 -49 241 l3 224 45 17 45 17 5 259 c3 143 9 266 13 273 24
37 53 39 508 46 l447 7 22 -30 c12 -17 30 -31 40 -31 47 0 50 -7 50 -107 0
-105 9 -133 45 -133 41 0 74 -18 95 -52 19 -31 20 -51 20 -408 0 -414 1 -420
59 -420 58 0 100 71 68 114 -13 17 -14 15 -13 -24 1 -38 -3 -46 -26 -59 -52
-30 -52 -24 -53 377 0 331 -2 370 -18 399 -27 50 -66 81 -111 89 -23 3 -44 12
-48 18 -4 6 -5 45 -2 86 8 96 -4 130 -45 130 -22 0 -36 8 -51 30 l-21 30 -106
0 c-93 0 -104 2 -93 15 7 8 36 22 64 30 29 9 68 29 87 45 41 35 37 40 -6 6z
m161 -516 c8 0 26 -11 39 -25 21 -20 25 -34 25 -85 l0 -60 -60 0 c-78 0 -100
19 -100 88 0 62 29 99 68 86 8 -2 20 -4 28 -4z"/>
<path d="M391 3358 c-1 -10 -10 -27 -21 -38 -11 -11 -16 -20 -10 -20 14 0 43
47 37 62 -4 8 -6 6 -6 -4z"/>
<path d="M1594 3335 c7 -29 10 -150 4 -161 -3 -5 -9 -153 -13 -329 l-7 -320
36 -34 36 -35 0 -188 c0 -119 4 -188 10 -188 6 0 10 71 10 193 l0 193 -35 34
-35 34 0 317 c0 269 2 318 15 329 17 14 21 35 5 25 -6 -4 -10 17 -10 57 0 35
-5 70 -11 78 -8 12 -9 11 -5 -5z"/>
<path d="M4891 3276 c-118 -40 -218 -79 -222 -87 -4 -8 -13 -36 -20 -62 -9
-37 -20 -54 -48 -73 -20 -13 -29 -24 -21 -24 40 0 82 53 94 120 l6 36 220 73
c121 40 220 77 220 82 0 13 6 15 -229 -65z"/>
<path d="M0 3331 c0 -5 33 -20 73 -34 161 -56 464 -165 489 -177 32 -15 39
-29 48 -95 l7 -50 2 50 c1 57 -15 87 -59 110 -25 13 -546 205 -556 205 -2 0
-4 -4 -4 -9z"/>
<path d="M840 3333 c0 -5 12 -20 28 -34 l27 -24 -25 30 c-14 17 -26 32 -27 34
-2 2 -3 0 -3 -6z"/>
<path d="M907 3269 c7 -7 15 -10 18 -7 3 3 -2 9 -12 12 -14 6 -15 5 -6 -5z"/>
<path d="M3350 3235 c0 -40 -2 -45 -23 -45 -13 0 -31 -6 -41 -13 -20 -15 -31
-81 -22 -132 7 -37 34 -56 96 -69 14 -3 34 -12 45 -19 18 -14 19 -27 16 -326
l-3 -311 31 0 c31 0 31 0 31 -55 0 -49 4 -59 35 -94 l35 -38 0 -274 c0 -155 5
-290 10 -311 6 -20 25 -49 44 -66 18 -16 132 -79 252 -142 120 -62 263 -137
317 -167 54 -31 100 -54 102 -51 6 5 -249 145 -440 242 -193 98 -233 123 -252
159 -16 28 -18 67 -21 326 l-3 294 -30 36 c-23 29 -29 45 -29 84 0 63 22 99
86 143 44 30 84 44 269 89 216 54 230 59 315 126 24 19 142 47 780 190 174 39
170 37 170 59 0 21 17 25 -465 -93 -170 -42 -345 -83 -388 -92 -43 -10 -91
-27 -110 -41 -17 -13 -48 -35 -68 -49 -25 -18 -76 -34 -170 -55 -276 -61 -338
-86 -402 -160 -24 -29 -42 -40 -61 -40 l-28 0 3 306 c4 348 11 320 -87 349
-29 8 -56 20 -60 26 -3 6 -6 38 -7 71 0 66 14 88 60 88 21 0 23 4 23 50 0 28
-2 50 -5 50 -3 0 -5 -20 -5 -45z"/>
<path d="M0 3261 c0 -8 139 -59 338 -123 127 -40 132 -46 132 -158 0 -51 -4
-90 -10 -90 -5 0 -108 27 -228 60 -121 33 -222 60 -226 60 -3 0 -6 -6 -6 -14
0 -9 59 -28 183 -60 292 -76 313 -83 341 -117 25 -29 26 -36 26 -160 0 -119
-1 -130 -17 -125 -35 10 -504 96 -525 96 -5 0 -8 -6 -8 -13 0 -10 72 -26 253
-56 312 -53 295 -49 303 -74 9 -32 34 -57 79 -79 22 -12 43 -26 47 -32 13 -18
9 -141 -4 -154 -8 -8 -57 -12 -153 -12 -176 0 -185 4 -185 90 0 68 -12 80 -79
80 l-41 0 0 46 0 45 48 -6 c26 -3 63 -8 82 -11 19 -3 32 -3 29 1 -12 11 -368
59 -377 50 -3 -3 -1 -5 4 -6 5 0 52 -6 104 -12 l95 -13 3 -47 c3 -45 2 -47
-20 -43 -13 3 -60 8 -105 11 l-83 6 0 -34 c0 -33 1 -34 46 -41 26 -3 70 -6 99
-6 l52 0 6 -67 c9 -93 23 -98 19 -6 -4 75 -3 76 20 70 12 -4 33 -7 46 -7 18 0
22 -5 22 -33 0 -44 24 -75 63 -81 18 -3 100 -8 184 -11 147 -5 152 -5 178 17
23 20 26 31 27 91 1 85 -18 115 -87 138 -73 23 -79 38 -85 213 -6 168 -13 187
-78 223 l-34 18 2 80 c4 122 2 133 -21 145 -18 10 -445 160 -455 160 -2 0 -4
-4 -4 -9z"/>
<path d="M1933 3260 c-12 -5 -30 -21 -40 -36 -16 -25 -19 -60 -23 -297 l-5
-269 -55 -48 -55 -48 -3 -191 c-2 -130 0 -191 7 -191 7 0 11 60 11 182 l0 182
58 53 57 53 5 274 c5 274 5 275 29 300 19 20 34 26 67 26 24 0 46 5 49 10 8
12 -71 12 -102 0z"/>
<path d="M975 3230 c3 -5 12 -10 19 -10 7 0 22 -10 33 -22 18 -20 22 -38 25
-131 3 -99 5 -110 26 -127 28 -23 211 -95 219 -86 3 3 -5 10 -18 15 -156 59
-191 75 -204 94 -11 15 -15 48 -15 115 0 104 -7 125 -50 147 -34 18 -44 19
-35 5z"/>
<path d="M4020 3209 c0 -11 5 -17 10 -14 6 3 10 13 10 21 0 8 -4 14 -10 14 -5
0 -10 -9 -10 -21z"/>
<path d="M1070 3204 c0 -3 30 -19 68 -36 102 -47 102 -47 102 -149 0 -48 3
-90 8 -92 7 -5 5 141 -4 180 -3 17 -27 34 -84 63 -81 41 -90 44 -90 34z"/>
<path d="M1664 3040 c0 -69 1 -97 3 -62 2 34 2 90 0 125 -2 34 -3 6 -3 -63z"/>
<path d="M3720 3140 c0 -13 5 -20 13 -17 6 2 12 10 12 17 0 7 -6 15 -12 18 -8
2 -13 -5 -13 -18z"/>
<path d="M2325 3103 c-38 -9 -83 -53 -99 -95 -15 -38 -16 -102 -14 -546 l3
-504 33 -29 c32 -29 33 -29 158 -29 111 0 129 -2 151 -20 22 -17 41 -20 130
-20 71 0 113 5 132 14 30 16 90 79 93 99 1 7 2 244 2 527 1 283 -2 488 -5 455
-5 -40 -5 -28 -3 36 3 65 0 99 -8 107 -9 9 -85 12 -282 11 -149 -1 -280 -4
-291 -6z m532 -323 l3 -285 -24 50 c-52 112 -152 177 -279 183 -97 5 -152 -14
-200 -67 -63 -70 -54 -158 22 -208 31 -21 46 -23 153 -23 97 0 120 3 125 15 3
9 -3 25 -12 35 -14 16 -31 20 -81 20 -74 0 -109 11 -124 40 -15 28 23 65 77
75 151 25 293 -156 253 -324 -22 -94 -116 -201 -175 -201 -27 0 -119 80 -141
121 l-15 29 94 0 c99 0 136 13 124 44 -6 14 -28 16 -178 16 l-171 0 6 -27 c21
-88 119 -217 221 -292 l30 -21 -127 2 c-107 3 -130 6 -145 21 -17 16 -18 53
-21 495 -2 332 1 485 9 503 18 45 56 73 107 79 26 3 142 6 257 6 l210 -1 2
-285z m8 -611 c-7 -132 -7 -132 -41 -169 -19 -21 -50 -45 -68 -54 -42 -20
-166 -22 -165 -3 0 6 34 37 76 67 42 30 94 78 115 107 41 53 78 137 78 175 0
12 3 19 6 15 4 -3 3 -65 -1 -138z"/>
<path d="M3370 3081 c0 -26 17 -36 35 -21 18 15 8 40 -16 40 -12 0 -19 -7 -19
-19z"/>
<path d="M510 3071 c5 -11 10 -54 10 -96 0 -48 4 -74 10 -70 13 8 13 126 0
159 -5 14 -14 26 -20 26 -7 0 -8 -6 0 -19z"/>
<path d="M1313 3010 c0 -47 2 -66 4 -42 2 23 2 61 0 85 -2 23 -4 4 -4 -43z"/>
<path d="M4775 2959 c-170 -50 -320 -93 -332 -96 -29 -7 -35 9 -25 67 7 45 8
45 70 66 75 25 90 36 32 23 -82 -19 -108 -35 -115 -72 -4 -18 -5 -47 -3 -63 6
-51 7 -51 501 88 119 33 217 64 217 69 0 16 -31 8 -345 -82z"/>
<path d="M4100 2875 c0 -163 -11 -219 -48 -243 -13 -8 -60 -26 -105 -39 -44
-13 -83 -26 -86 -28 -30 -31 167 11 202 42 45 41 50 69 49 242 -1 90 -4 167
-7 169 -3 3 -5 -61 -5 -143z"/>
<path d="M1804 2987 c-2 -7 -3 -71 -2 -143 l3 -129 5 143 c3 78 4 142 2 142
-1 0 -5 -6 -8 -13z"/>
<path d="M944 2979 c-10 -17 13 -36 27 -22 12 12 4 33 -11 33 -5 0 -12 -5 -16
-11z"/>
<path d="M593 2920 c0 -30 2 -43 4 -27 2 15 2 39 0 55 -2 15 -4 2 -4 -28z"/>
<path d="M4780 2875 c-173 -46 -326 -84 -340 -84 -56 -2 -264 -61 -287 -83
-32 -30 -29 -43 5 -18 24 18 197 70 277 84 72 12 685 172 685 179 0 12 -11 9
-340 -78z"/>
<path d="M10 2891 c9 -5 110 -30 225 -55 116 -26 220 -51 232 -56 16 -6 23
-20 26 -47 l4 -38 1 43 c2 35 -2 44 -20 52 -13 5 -115 30 -228 55 -113 25
-216 48 -230 51 -19 4 -21 3 -10 -5z"/>
<path d="M920 2861 c0 -21 6 -30 22 -34 25 -7 25 -7 28 13 6 38 -1 50 -25 50
-21 0 -25 -5 -25 -29z"/>
<path d="M1629 2863 c-13 -16 -12 -17 4 -4 9 7 17 15 17 17 0 8 -8 3 -21 -13z"/>
<path d="M1637 2834 c-4 -4 -7 -76 -7 -161 0 -127 2 -153 15 -153 19 0 24 41
22 189 -2 116 -9 146 -30 125z"/>
<path d="M5065 2799 c-22 -5 -140 -30 -263 -56 -178 -37 -227 -51 -245 -68
-15 -16 -48 -28 -107 -39 -166 -33 -170 -37 -170 -140 0 -59 3 -67 25 -82 13
-8 29 -13 35 -9 9 5 11 -24 8 -110 -3 -109 -5 -118 -27 -136 -15 -12 -18 -19
-9 -19 8 0 22 8 31 18 14 15 17 41 17 134 l0 115 62 7 c51 6 67 13 95 41 31
31 33 37 33 103 0 112 -5 109 308 172 185 38 262 57 262 67 0 15 1 14 -55 2z
m-535 -228 c0 -107 -34 -135 -169 -143 -54 -3 -55 -2 -64 29 -14 46 0 121 24
133 15 8 160 44 202 49 4 1 7 -30 7 -68z"/>
<path d="M973 2760 c0 -25 2 -35 4 -22 2 12 2 32 0 45 -2 12 -4 2 -4 -23z"/>
<path d="M1693 2720 c0 -41 2 -58 4 -37 2 20 2 54 0 75 -2 20 -4 3 -4 -38z"/>
<path d="M3522 2658 c2 -12 10 -23 18 -23 22 0 19 39 -3 43 -15 3 -18 -1 -15
-20z"/>
<path d="M4965 2614 c-172 -26 -226 -36 -222 -40 4 -5 351 43 372 51 23 8 -66
2 -150 -11z"/>
<path d="M600 2562 c0 -20 42 -61 73 -71 27 -9 219 -45 485 -92 44 -8 67 -18
77 -32 17 -24 20 -15 5 13 -12 22 -49 34 -175 55 -49 9 -162 29 -250 46 -146
27 -162 33 -187 60 -16 16 -28 25 -28 21z"/>
<path d="M3055 2550 c-3 -5 -1 -10 4 -10 6 0 11 5 11 10 0 6 -2 10 -4 10 -3 0
-8 -4 -11 -10z"/>
<path d="M4168 2495 c-5 -38 -8 -100 -8 -137 0 -104 -13 -113 -182 -122 l-98
-5 0 77 c0 47 5 85 13 95 8 11 38 19 91 26 75 9 108 22 93 38 -11 10 -158 -15
-183 -31 -24 -16 -34 -60 -34 -148 0 -56 -1 -58 -34 -72 -19 -8 -39 -23 -44
-33 -5 -10 -12 -146 -15 -303 -4 -247 -3 -288 10 -305 16 -20 16 -20 8 0 -4
11 -7 146 -6 300 3 269 3 281 24 303 11 12 28 22 37 22 16 0 17 -19 12 -221
-5 -239 2 -304 41 -352 25 -31 167 -90 982 -412 121 -48 226 -89 233 -92 6 -3
12 0 12 5 0 11 -54 33 -474 192 -149 56 -306 118 -350 137 -45 19 -144 59
-221 89 -225 88 -214 63 -207 485 l2 176 116 7 c122 7 162 20 184 60 7 13 10
71 8 156 -3 124 -4 129 -10 65z"/>
<path d="M3771 2539 c-18 -6 -31 -12 -28 -15 6 -6 87 14 87 21 0 7 -20 5 -59
-6z"/>
<path d="M3450 2520 c0 -11 7 -20 15 -20 8 0 15 9 15 20 0 11 -7 20 -15 20 -8
0 -15 -9 -15 -20z"/>
<path d="M3060 2490 c0 -5 5 -10 10 -10 6 0 10 5 10 10 0 6 -4 10 -10 10 -5 0
-10 -4 -10 -10z"/>
<path d="M4930 2485 c-58 -7 -113 -16 -122 -20 -36 -14 -61 -74 -66 -156 l-4
-78 -62 -5 c-33 -4 -81 -7 -106 -9 l-45 -2 0 -180 -1 -180 6 175 5 175 103 3
102 3 0 -278 c0 -246 -2 -281 -17 -303 -30 -43 -72 -70 -158 -101 l-50 -18 40
0 c48 0 149 51 178 90 31 42 36 97 37 367 l0 252 88 1 c48 1 128 5 177 9 63 6
38 7 -87 3 l-178 -5 0 81 c0 74 2 83 28 111 29 32 57 38 250 55 77 7 100 26
30 24 -24 -1 -90 -7 -148 -14z"/>
<path d="M1414 2439 c-10 -17 13 -36 27 -22 12 12 4 33 -11 33 -5 0 -12 -5
-16 -11z"/>
<path d="M1710 2420 c0 -5 5 -10 10 -10 6 0 10 5 10 10 0 6 -4 10 -10 10 -5 0
-10 -4 -10 -10z"/>
<path d="M1142 2363 c9 -10 18 -25 21 -33 4 -10 6 -11 6 -2 1 20 -18 52 -31
52 -7 0 -5 -7 4 -17z"/>
<path d="M4000 2360 c0 -5 18 -10 40 -10 22 0 40 5 40 10 0 6 -18 10 -40 10
-22 0 -40 -4 -40 -10z"/>
<path d="M460 2291 c0 -34 4 -61 10 -61 6 0 10 24 10 54 0 30 -4 58 -10 61 -6
4 -10 -17 -10 -54z"/>
<path d="M3658 2294 c-1 -9 -1 -103 1 -208 2 -105 7 -178 10 -161 l6 30 30
-39 c28 -37 30 -45 36 -160 l5 -121 2 113 c2 120 -1 132 -50 193 l-30 37 3
161 c1 88 0 163 -3 167 -4 3 -8 -2 -10 -12z"/>
<path d="M1160 2210 c0 -85 -2 -93 -25 -114 -14 -13 -36 -26 -48 -29 -12 -3
-213 -20 -447 -37 -234 -16 -443 -34 -465 -39 -35 -8 -33 -8 20 -5 33 3 242
16 465 30 223 13 419 29 437 35 18 6 44 24 58 40 23 28 25 39 25 120 0 53 -4
89 -10 89 -6 0 -10 -37 -10 -90z"/>
<path d="M1705 2251 c-3 -5 -1 -12 5 -16 12 -7 30 2 30 16 0 12 -27 12 -35 0z"/>
<path d="M3913 2095 c4 -59 7 -175 7 -257 l0 -150 28 -27 c22 -22 79 -43 307
-110 154 -46 412 -127 573 -181 204 -69 292 -94 292 -85 0 17 -475 172 -860
281 -227 64 -280 83 -302 105 l-28 27 0 246 c0 175 -3 247 -12 252 -8 5 -10
-20 -5 -101z"/>
<path d="M100 2150 c-89 -5 -74 -6 94 -8 110 -1 197 0 195 2 -9 8 -190 11
-289 6z"/>
<path d="M1443 2100 c0 -36 2 -50 4 -32 2 17 2 47 0 65 -2 17 -4 3 -4 -33z"/>
<path d="M233 2085 c-123 -6 -226 -15 -230 -18 -9 -10 54 -8 392 12 213 13
265 18 180 18 -66 0 -220 -5 -342 -12z"/>
<path d="M4097 2046 l-47 -55 0 -90 c0 -106 9 -135 48 -155 25 -13 393 -116
415 -116 4 0 7 7 7 15 0 16 -7 18 -215 65 -254 58 -247 53 -243 197 l3 92 50
51 c27 27 45 50 39 50 -6 0 -31 -24 -57 -54z"/>
<path d="M1676 1954 c-19 -19 -17 -33 7 -48 24 -15 56 17 41 41 -15 24 -29 26
-48 7z"/>
<path d="M2057 1943 c-13 -12 -7 -23 13 -23 11 0 20 7 20 15 0 15 -21 21 -33
8z"/>
<path d="M442 1910 c0 -14 2 -19 5 -12 2 6 2 18 0 25 -3 6 -5 1 -5 -13z"/>
<path d="M3698 1742 c3 -106 8 -153 18 -169 19 -29 50 -45 278 -138 252 -103
460 -193 695 -304 107 -50 196 -90 198 -88 10 11 -581 278 -902 407 -171 70
-269 124 -257 144 3 5 1 6 -5 3 -7 -4 -11 40 -12 130 -1 75 -5 142 -9 149 -4
7 -6 -53 -4 -134z"/>
<path d="M450 1749 c-4 -117 -8 -140 -24 -158 -11 -12 -14 -21 -9 -21 28 0 38
36 41 144 2 61 2 125 0 141 -2 17 -6 -31 -8 -106z"/>
<path d="M3654 1690 c0 -85 2 -120 3 -77 2 42 2 112 0 155 -1 42 -3 7 -3 -78z"/>
<path d="M3454 1730 c0 -58 1 -81 3 -52 2 28 2 76 0 105 -2 28 -3 5 -3 -53z"/>
<path d="M764 1630 c0 -58 1 -81 3 -52 2 28 2 76 0 105 -2 28 -3 5 -3 -53z"/>
<path d="M2608 1702 c-33 -7 -18 -18 17 -14 19 2 35 5 35 7 0 6 -36 11 -52 7z"/>
<path d="M2388 1693 c12 -2 32 -2 45 0 12 2 2 4 -23 4 -25 0 -35 -2 -22 -4z"/>
<path d="M2582 1645 c0 -16 2 -22 5 -12 2 9 2 23 0 30 -3 6 -5 -1 -5 -18z"/>
<path d="M4155 1640 c33 -11 65 -19 70 -19 17 1 -89 37 -110 38 -11 0 7 -9 40
-19z"/>
<path d="M2028 1640 c-256 -4 -289 -7 -305 -22 -21 -22 -6 -23 21 -3 17 13 78
15 375 15 195 0 351 3 347 8 -9 8 -58 9 -438 2z"/>
<path d="M335 1559 c-105 -25 -335 -92 -335 -99 0 -4 77 15 171 41 94 27 177
49 185 49 7 0 16 5 19 10 3 6 5 10 3 9 -2 -1 -21 -5 -43 -10z"/>
<path d="M4846 1541 c-9 -14 2 -19 144 -60 93 -27 130 -34 130 -25 0 7 -8 15
-17 18 -44 12 -227 68 -239 73 -6 2 -15 0 -18 -6z"/>
<path d="M2833 1533 c-17 -6 -17 -85 -1 -101 8 -8 55 -11 158 -10 l145 2 -130
3 c-174 4 -175 4 -175 53 0 27 6 42 18 49 17 11 7 13 -15 4z"/>
<path d="M3660 1523 c0 -6 15 -20 33 -32 34 -21 513 -261 852 -427 236 -115
235 -115 235 -108 0 3 -242 125 -537 271 -296 146 -548 274 -560 286 -13 11
-23 16 -23 10z"/>
<path d="M2575 1511 l99 -6 22 -134 c22 -137 34 -166 85 -203 22 -16 60 -18
471 -20 245 -2 444 0 441 5 -2 4 -202 7 -445 7 l-440 0 -38 38 c-39 39 -39 41
-79 277 l-7 40 -104 1 -105 1 100 -6z"/>
<path d="M1605 1468 c-11 -6 -58 -43 -105 -83 -47 -39 -150 -122 -230 -184
-150 -118 -189 -151 -158 -135 17 10 335 261 433 343 63 53 87 61 111 36 13
-12 51 -15 213 -15 l198 0 1 -40 2 -40 -208 0 c-170 0 -211 -3 -229 -15 -29
-20 -133 -155 -120 -155 3 0 28 31 57 69 29 38 63 74 77 80 15 7 99 11 223 11
l200 0 0 -34 c0 -35 -12 -51 -45 -59 -15 -4 -14 -5 7 -6 32 -1 48 22 48 68 l0
30 108 4 107 3 -108 2 -108 2 3 38 3 37 270 5 270 5 -267 3 c-202 1 -268 5
-271 15 -4 10 -6 10 -6 0 -1 -10 -47 -13 -197 -13 -181 0 -198 2 -221 20 -30
23 -31 23 -58 8z"/>
<path d="M4041 1476 c10 -9 69 -36 69 -32 0 6 -55 36 -66 36 -4 0 -5 -2 -3 -4z"/>
<path d="M3507 1422 c32 -27 113 -77 113 -69 0 2 -33 25 -72 51 -46 29 -61 36
-41 18z"/>
<path d="M175 1368 c-171 -60 -182 -65 -174 -72 5 -4 319 107 346 123 35 20
-3 9 -172 -51z"/>
<path d="M3395 1421 c3 -5 65 -49 138 -96 72 -48 165 -109 206 -136 41 -27 76
-48 78 -46 4 5 -29 27 -265 181 -90 58 -161 102 -157 97z"/>
<path d="M3610 1425 c0 -2 24 -17 53 -31 28 -15 81 -44 116 -65 79 -49 95 -51
21 -3 -62 40 -190 107 -190 99z"/>
<path d="M4245 1375 c17 -7 55 -24 85 -38 98 -45 253 -107 257 -104 4 5 -351
157 -363 156 -5 0 5 -7 21 -14z"/>
<path d="M4140 1325 c25 -13 50 -24 55 -24 6 0 -10 11 -35 24 -25 13 -49 24
-55 24 -5 0 10 -11 35 -24z"/>
<path d="M1892 1268 c7 -19 38 -22 38 -4 0 10 -9 16 -21 16 -12 0 -19 -5 -17
-12z"/>
<path d="M3567 1249 c7 -8 34 -30 60 -48 l48 -33 -40 37 c-45 41 -89 69 -68
44z"/>
<path d="M3868 1229 c18 -12 35 -19 38 -16 3 3 -8 13 -25 21 -43 23 -52 19
-13 -5z"/>
<path d="M3960 1226 c0 -7 134 -86 146 -86 5 0 -11 12 -36 26 -25 14 -60 35
-77 46 -18 11 -33 17 -33 14z"/>
<path d="M2340 1175 c-11 -13 -11 -19 3 -32 21 -21 49 -9 45 19 -4 28 -30 35
-48 13z"/>
<path d="M4731 1166 c3 -3 56 -27 119 -54 63 -28 146 -64 184 -82 37 -17 70
-29 72 -27 5 5 -142 74 -273 129 -87 36 -112 44 -102 34z"/>
<path d="M4605 1078 c169 -86 285 -139 285 -132 0 6 -407 204 -418 203 -4 0
56 -32 133 -71z"/>
<path d="M4310 1116 c0 -3 9 -10 20 -16 11 -6 20 -8 20 -6 0 3 -9 10 -20 16
-11 6 -20 8 -20 6z"/>
</g>
</svg>