<?xml version="1.0" encoding="UTF-8"?>
<svg width="640.71" height="452.45" viewBox="0 0 553.97 751.595" xmlns="http://www.w3.org/2000/svg">
 <g transform="matrix(2.4723 0 0 2.4723 -294.43 -262.65)" fill="#ff0000">
  <path d="m60.395,183.261v-4.437c0,0 6.155-5.871 6.729-5.871s5.726,3.58 6.299,4.724c.572,1.146.716,5.727.716,5.727l-13.744-.143z"/>
  <path d="m60.872 188.51s7.253-3.533 12.788 0.381l0.669 7.635s-7.636-2.098-14.126 0.763l0.669-8.779z"/>
  <path d="m60.776,203.398c.095-.286 8.111-4.581 13.839-.19l1.812,39.035h-17.082l1.431-38.845z"/>
  <path d="m57.674 198.51s10.953-4.295 19.756 0.429l0.143 2.79s-10.307-3.936-18.969 0.573l-0.93-3.792z"/>
  <path d="m56.601,242.816 22.762.144v3.794l-22.691-.359-.143-3.365 .072-.214z"/>
  <path d="m58.772,249.973c.095-.286 10.02-5.057 17.942.192l1.622,31.494 3.15.573-.191,4.771-3.245,1.051c0,0-7.54-5.344-19.374-.095l-3.436-1.719 .095-3.625 3.245.095 .192-32.737z"/>
  <path d="m245.76 125.89a2.505 2.471 0 1 0 -5.01 0 2.505 2.471 0 1 0 5.01 0"/>
  <path d="m245.14 131.45a1.825 1.896 0 1 0 -3.65 0 1.825 1.896 0 1 0 3.65 0"/>
  <path d="m245.02 117.71a1.718 1.682 0 1 0 -3.436 0 1.718 1.682 0 1 0 3.436 0"/>
  <path d="m244.67 110.84a1.424 1.657 0 1 0 -2.848 0 1.424 1.657 0 1 0 2.848 0"/>
  <path d="m242.63 108.39h1.288v29.705h-1.288z"/>
  <path d="m223.45 150.48s17.823-12.025 19.899-16.106c0 0 17.68 13.171 20.543 14.102s0.429 1.002 0.429 1.002-12.239-5.298-40.871 1.002z"/>
  <path d="m198.875,205.213c-.095-.286-1.623-11.834-1.623-11.834s.001-10.974 2.768-16.318c2.767-5.346 6.681-11.263 10.021-14.509 3.34-3.242 13.552-10.401 15.079-11.642s34.359-2.958 37.603-.286c3.245,2.673 8.971,5.82 10.785,7.635s8.017,5.536 10.021,9.066 4.867,7.063 5.727,11.168c.858,4.103 1.909,8.588 1.812,13.169s0,6.681-.382,10.022-.668,3.53-.953,4.295c-.286.763-4.772-3.532-9.163-4.678s-16.892-1.049-18.992-1.24-10.021-.86-13.935-.765c-3.912.097-18.992,1.241-21.568,1.432s-15.939,1.432-18.802,2.291-8.398,2.387-8.398,2.387v-.193z"/>
  <path d="m295.65 286.14h17.56l-0.189-12.789s-4.581-3.627-7.444-4.2-8.59 5.919-9.926 7.253c-1.337 1.336-1e-3 9.736-1e-3 9.736z"/>
  <path d="m329.67 286.48 11.31 0.144v-18.61s-1.861-4.439-2.435-5.01-9.449 17.178-8.875 23.476z"/>
  <path d="m286.725,224.204c-.1.19-.215-6.44.716-7.945 .932-1.501 9.949-10.236 12.527-12.023l.286-9.806 .645-.144 .572,9.95c0,0 9.948,4.938 12.384,9.377 2.432,4.437 2.289,9.09 2.361,10.449s-28.202-2.29-29.491.142z"/>
  <path d="m148.436,232.724c0-.215.072-11.741.072-11.741s-.86-.142-1.003-.429 .43-2.719 1.576-4.007 3.507,2.935 3.436,4.079c-.072,1.146-1.862.288-1.862.288l-.143,11.953-2.076-.143z"/>
  <path d="m154.376,233.224h2.291l-.286-4.581 .93-.07c0,0-1.646-3.437-1.861-4.153-.215-.715-2.577,3.581-2.433,4.08s1.359.429 1.359.429v4.295z"/>
  <path d="m205.84 217.62s46.811-8.017 77.59-1.145v8.874l-77.304 2.146-0.286-9.875z"/>
  <path d="m220.444,247.826 .287,25.339 1.861.286c0,0 2.004-7.015 3.436-8.303s15.604-8.446 17.895-10.308 .859-.573.859-.573 12.312,5.869 15.316,7.444c3.007,1.576 6.586,6.729 7.303,8.734l.716,2.003 1.145-.285v-24.91l-48.818.573z"/>
  <path d="m238.77 286.19s8.016-2.434 10.02-4.583 4.582-0.429 6.012 0.144 12.599 6.729 12.599 6.729l1.574 0.573-0.287 33.928-40.227 0.571-0.287-24.908s1.002-4.866 3.436-7.3 6.729-5.013 7.16-5.154z"/>
  <path d="m286.868,231.745-.095,10.976 3.339-.286c0,0-.762-10.31 0-10.883s-3.244.193-3.244.193z"/>
  <path d="m294.6,242.243 3.626.095-.19-7.825c0,0 1.813-3.627 3.816-4.198s3.149,2.193 3.914,3.625 .477,8.398.477,8.398l3.437.097 .095-5.344 2.768.286c0,0-2.768-7.063-3.913-7.542s-12.884-.093-12.884-.093-2.004,1.62-2.958,1.62 1.622,3.056 1.813,3.819-.001,7.062-.001,7.062z"/>
  <path d="m316.55,233.75c-.095-.286 0,8.588 0,8.588l-3.436.097 .19-4.678c.001.001 3.341-3.721 3.246-4.007z"/>
  <path d="m321.322,226.116-2.864,3.053 1.241.381 .381,13.266h2.195l-.094-10.976v-2.577l1.622-.286-2.481-2.861z"/>
  <path d="m286.296,243.96 35.503-.571c0,0 20.519,2.291 21.378,3.244 .86.956 1.241,2.291 1.241,2.291l-58.981-.383-.285-4.483 1.144-.098z"/>
  <path d="m416 176.96v-4.437s6.156-5.871 6.729-5.871 5.727 3.581 6.299 4.725c0.573 1.146 0.716 5.727 0.716 5.727l-13.744-0.144z"/>
  <path d="m416.47 182.21s7.254-3.534 12.79 0.379l0.668 7.636s-7.635-2.1-14.125 0.764l0.667-8.779z"/>
  <path d="m416.38 197.1c0.095-0.288 8.112-4.581 13.838-0.19l1.813 39.035h-17.083l1.432-38.845z"/>
  <path d="m413.28 192.21s10.952-4.295 19.757 0.43l0.143 2.792s-10.308-3.936-18.969 0.573l-0.931-3.795z"/>
  <path d="m412.202,236.516 22.762.144v3.792l-22.69-.355-.144-3.365 .072-.216z"/>
  <path d="m414.374,243.675c.096-.286 10.021-5.059 17.942.19l1.622,31.496 3.149.573-.19,4.771-3.246,1.049c0,0-7.539-5.344-19.373-.095l-3.437-1.717 .097-3.626 3.244.095 .192-32.736z"/>
  <path d="m413.8 283.66s11.548-5.249 20.71 0.19l3.627 71.77s-14.888-16.129-18.037-17.275-9.64-1.812-9.831-1.812 2.101-2.482 2.101-2.482l1.431-50.199v-0.192h-1e-3z"/>
  <path d="m372.977,221.7-.143-1.216h2.435c0,0-.216-3.722-.145-4.008s4.439-4.081 4.439-4.081l.357-5.725 .644.07 .43,5.871c0,0 4.867,2.147 4.939,7.015s0,.571 0,.571l2.004.216 .071.858c.001,0-13.885.142-15.031.429z"/>
  <path d="m375.12 222.7s7.588-1.576 10.559 0.035l0.215 7.623-10.951 0.108 0.177-7.766z"/>
  <path d="m372.69,231.221c0,0 14.745-.645 15.318.035l.036,1.144-2.147,1.541 1.038,30.312-12.812.25 .787-28.238 .071-1.539-1.323-1.36-.753-.357-.215-1.788z"/>
  <path d="m371.868,265.255c0,0 17.68-.536 18.108.037l-.179,2.933-2.219.501 .93,26.985-14.851-.035 .5-26.95-2.146-.608-.108-2.756"/>
  <path d="m178.643,301.583c.644.144 6.011-6.729 9.089-6.013 3.078.715 9.233,6.728 9.233,6.728s.573,7.015 0,6.799c-.572-.213-6.656-3.866-6.871-3.362s-2.291,1.503-4.366,1.933-4.724,4.295-4.724,4.295v9.76l23.025-.456-.955-77.305-34.167.381-24.051,2.673 1.337,75.396 31.822-.629 .628-20.2zm-20.806-40.251c2.863-.573 4.58,4.007 5.917,5.536 1.336,1.525 0,7.635 0,7.635l-3.626-3.437c0,0-3.436-1.145-4.2-1.337s-3.817-1.336-3.817-1.336 2.863-6.491 5.726-7.061zm6.632,48.266c0,0-1.145-2.36-2.792-3.291s-3.436-.288-5.296-1.076-3.508-3.075-3.508-3.075 2.291-3.938 5.01-5.369c0,0 4.868,2.075 6.084,5.154s.502,7.657.502,7.657zm13.219-42.159c.572-4.008 9.925-8.208 9.925-8.208 6.49,3.435 9.163,8.588 9.163,8.588s.381,6.3-.191,6.109-2.672-3.819-6.872-3.246-9.353,7.254-9.353,7.254l-.19,9.927-2.481-.383c-.001.001-.574-16.034-.001-20.041z"/>
  <path d="m209.564,237.519 .859,75.014 3.866.573 2.147-69.287 57.262-.144 1.146,45.094 2.147,3.722c0,0 .286,13.886-.144,14.888s1.862,4.295 1.862,4.295l1.146-.142 .143-74.443-70.434.43z"/>
  <path d="m207.56,317.687-.143,4.438 11.882.286 .286-4.437-12.025-.287z"/>
  <path d="m272.123,317.257 12.026-.429v4.437l-12.026.431v-4.439z"/>
  <path d="m288.3,317.687 3.722-.142 .143,4.007-3.865.144v-4.009z"/>
  <path d="m285.008,251.548 .572,68.717 1.002.285 .573-69.002h-2.147z"/>
  <path d="m326.09 245.11 9.449-13.885 10.593 0.429v17.75l-20.042-4.294z"/>
  <path d="m187.95 196 1.289 0.072 0.214 9.377h-1.718l0.215-9.449z"/>
  <path d="m174.132,226.782 .072-8.23c0,0 14.102-13.099 14.316-14.459s.429.072.429.072 10.164,7.729 12.168,10.951l2.005,3.223-.144,8.301-28.846.142z"/>
  <path d="m202.12,232.151-.072-1.791h1.217l-.214-2.934-29.419.07c0,0-2.577.573-3.436,1.647l3.936,3.506 .072,10.595 28.99-.072-.071-10.953-1.003-.068zm-9.807,10.092-7.874.072c0,0-.071-5.583 0-6.514s3.579-4.009 3.579-4.009c2.936.501 3.938,3.724 3.938,3.724s-1.146-.861-2.291-1.075c-1.145-.215-3.437,1.717-3.437,1.717l.216,1.717 6.084.072-.215,4.296z"/>
  <path d="m144.141,233.688 2.434-4.794 1.754,4.295-.072-.538 8.375.359 .214,3.149 4.367,4.188 .178,2.504 1.611,1.109 .071,1.432-7.659,1.647-10.378.752 .322-13.101c0,0-1.146-.678-1.217-1.002z"/>
  <path d="m169.336,227.714c0,0-2.314,3.028-2.314,3.316s.025.548.025.548l1.192.049-.023,13.646 2.313.095 .072-13.791c0,0 .955-.262 1.074-.357 .12-.096-2.314-3.482-2.339-3.506z"/>
  <path d="m346.135,250.832 1.289,69.289-5.726.144 1.144-66.712 .86-1.719 2.433-1.002z"/>
  <path d="m340.838,256.558 .431-3.578-19.04-1.432 .858,69.574h4.582l-.287-28.344 13.456.144-.285-4.153-13.457-.715-.286-23.478c0,0 5.439-4.868 6.441-5.01s1.002-3.151 1.002-3.151l6.585.143z"/>
  <path d="m339.41 300.51s-9.733 10.881-9.161 20.471h9.878l-0.717-20.471z"/>
  <path d="m296.03 321.55 18.037-0.858-0.143-12.312s-6.586-3.007-8.303-3.437-9.307 5.298-9.592 7.017 1e-3 9.59 1e-3 9.59z"/>
  <path d="m293.597,292.635c-.285.429.287,9.161.287,9.161s7.015-7.015 9.591-7.015c0,0 9.163,3.866 10.164,6.156l.716-8.447-20.758.145z"/>
  <path d="m293.88 265.58s7.873-6.585 10.021-6.871 8.876 4.724 9.448 6.154 0.716-8.732 0.716-8.732l-21.187-0.144 1.002 9.593z"/>
  <path d="m340.41 217.81h2.004v17.464h-2.004z"/>
  <path d="m334.11 227.02h1.432v8.112h-1.432z"/>
  <path d="m334.922,227.355c0,0-2.005-.383-2.196-.717s2.244-2.434 2.387-3.005 2.005,2.671 2.101,2.91c.094.239-2.292.812-2.292.812z"/>
  <path d="m341.316,218.623c0,0-2.004-.383-2.195-.717s2.242-2.432 2.385-3.005 2.006,2.671 2.101,2.91-2.291.812-2.291.812z"/>
  <path d="m344.514,231.889c0,0-2.005-.383-2.196-.715-.19-.336 2.244-2.436 2.387-3.007s2.004,2.671 2.1,2.91c.094.239-2.291.812-2.291.812z"/>
  <path d="m224.53 410.02 19.01-51.918c-0.272 0.407-11 22.98-24.72 51.918h5.71zm59.095-52.299-15.27 0.764 88.628 51.535h88.147c-24.693-7.755-161.5-52.299-161.5-52.299zm-81.313 0.381-184.32 51.918h86.401l114.72-50.772-16.797-1.146z"/>
  <path d="m57.427,317.24c4.817-3.844 8.977-8.507 14.419-9.002 4.083-.369 6.415-1.342 7.867-2.176l-.804-15.908c-9.162-5.441-20.709-.192-20.709-.192v.192l-.773,27.086z"/>
  <path d="m371.046,334.438c.09.361.072.033-.026-.675-.021.271-.017.504.026.675zm-20.614-1.529-.102-.177c-3.017,6.067.102.177.102.177zm-111.473,23.288h-.092c-.217,2.778.092,0 .092,0zm148.884-56.118c-.765-1.908-14.125-.381-14.125-.381l-.383,22.143-253.388,2.669-.19-22.521 2.194-1.432-.094-2.578-2.673-.285-.954-25.388 2.672-1.908-.477-2.958-2.863-.381-1.336-29.108 2.481-2.102 .191-2.767-2.292.288c0,0 .095-.67 0-1.336s.095-.48 0-.956 .095-6.205.095-6.205l2.291-.762-.476-1.336-1.718-.19-.096-.668c-.667-2.863-5.726-7.156-5.726-7.156-4.962,3.242-5.631,8.301-5.631,8.301l-2.004.765 .287,2.384 2.194.573 .287,6.395-2.005.381 .096,1.91 1.718,2.673-.669,29.299-2.194-.095-.096,3.149 1.813,1.241-.381,26.435-1.909.097 .096,2.098 1.909,1.91-.287,22.713 1.002.717 1.832,1.729c3.255,5.291 5.662,11.91 4.804,19.404 .38-.581.569-2.861.378-4.194-.19-1.336 1.527-2.48 1.91-3.054s-.191-2.673-.573-4.198c-.382-1.526-.382-3.628-.382-5.153 0-1.233 1.497-2.469 2.676-3.301l1.963-.11c1.011.972 2.042,3.028 2.042,3.028l.382,2.48 .764,3.817-.572,6.873 1.909-1.719 1.717-2.101c0,0-.572-4.58-.764-5.534s.382-4.198.382-4.198 1.91-2.482 2.482-2.673 2.863-.19 3.817,0 2.1,3.627 2.1,3.627l-.191,6.298-.19,7.827 5.536-.381c0,0 .19-2.675.19-4.01s.191-4.581.573-6.109c.381-1.525 3.245-3.244 4.009-3.054s2.862,2.673 3.436,2.292 2.481-2.482 4.2.19 .572,5.344.572,5.344l3.245.192c0,0 .382-2.102 2.862-4.392s4.391.573 4.391.573l1.528,6.681-2.483,10.499 3.628,5.152 7.062-.19c0,0-.191-12.98.19-16.034s1.527-8.208 4.581-6.107 2.672,8.207 2.672,8.207l.573,14.315 36.839-1.718 23.577.192c.024-.311.054-.686.092-1.146 .382-4.581 5.727-3.817 5.727-3.817 4.199,0 5.344,4.58 5.344,4.58l38.176-1.907v3.817l24.05-1.145c0,0-1.146-4.963-.382-16.417 .765-11.452 7.254-3.054 7.254-3.054 1.145-7.635 5.344-3.817 5.344-3.817 1.527-6.107 14.89-.383 14.89-.383 4.246-10.97 10.132-1.601 10.969-.177l.482-.967c3.817-7.637 7.635-2.291 8.017-4.2s8.018-2.29 9.544-2.29c1.165,0 2.33,6.22 2.646,8.488 .167-2.16 2.274-7.131 4.988-8.488 3.055-1.527 4.582,8.017 4.582,8.017l3.436-1.907c0,0 1.527-7.256 2.672-8.4s2.291-1.907 2.291-1.907-.385-19.089-1.148-20.998z"/>
 </g>
</svg>
