<?xml version="1.0" standalone="no"?>
<!DOCTYPE svg PUBLIC "-//W3C//DTD SVG 20010904//EN"
 "http://www.w3.org/TR/2001/REC-SVG-20010904/DTD/svg10.dtd">
<svg version="1.0" xmlns="http://www.w3.org/2000/svg"
 width="512.000000pt" height="512.000000pt" viewBox="0 0 512.000000 512.000000"
 preserveAspectRatio="xMidYMid meet">
<metadata>
Created by potrace 1.16, written by Peter Selinger 2001-2019
</metadata>
<g transform="translate(0.000000,512.000000) scale(0.100000,-0.100000)"
fill="#ff0000" stroke="none">
<path d="M2374 4361 c-250 -59 -483 -229 -639 -466 l-44 -68 -133 -41 c-228
-71 -290 -110 -344 -218 -44 -88 -57 -173 -58 -388 -1 -191 0 -197 25 -245 18
-36 39 -58 74 -80 l49 -30 258 1 c229 1 258 -1 259 -15 0 -11 4 -9 11 7 6 12
14 22 17 22 3 0 44 7 91 15 47 8 173 29 280 46 328 51 408 77 482 157 52 56
86 133 94 210 4 34 11 62 15 62 16 0 9 -87 -12 -155 -17 -57 -31 -78 -84 -133
l-63 -65 49 6 c71 9 131 39 184 92 36 35 45 41 39 23 -36 -114 -180 -220 -344
-252 -64 -13 -425 -56 -467 -56 -10 0 -11 -5 -3 -19 14 -26 13 -64 -2 -79 -18
-18 -30 -14 -23 8 4 14 -2 28 -20 46 -26 26 -30 27 -110 22 -117 -8 -125 -14
-75 -66 37 -38 45 -59 41 -104 -3 -29 18 -21 37 13 37 68 43 72 91 59 57 -15
87 -7 106 30 l16 30 49 -25 c125 -64 168 -56 423 71 198 100 254 146 313 257
l39 72 7 -85 c10 -115 36 -239 56 -274 25 -43 67 -70 109 -70 28 -1 52 -12 93
-42 60 -45 91 -56 130 -44 l25 7 -26 11 c-44 18 -101 74 -122 120 -25 58 -38
153 -31 223 6 54 7 56 42 65 30 8 42 19 70 69 86 154 177 190 312 122 112 -56
146 -136 124 -294 l-8 -58 -8 75 c-8 80 -22 125 -37 116 -5 -4 -30 -57 -56
-119 -77 -185 -102 -232 -131 -246 -38 -17 -61 -5 -85 42 -49 95 -28 248 51
377 l22 35 -32 -35 c-77 -86 -122 -199 -122 -310 0 -60 -2 -70 -10 -50 -5 14
-8 59 -5 100 6 88 35 165 93 246 36 50 100 104 124 104 5 0 10 4 10 9 0 12
-76 -3 -97 -20 -78 -58 -125 -129 -157 -238 -18 -63 -21 -168 -5 -226 13 -46
68 -105 98 -105 l20 0 -20 35 c-12 19 -19 40 -17 46 2 6 20 -17 41 -52 l37
-62 -22 -25 c-37 -39 -76 -55 -126 -49 -39 4 -52 12 -96 61 -29 31 -60 56 -69
56 -23 0 -40 -29 -87 -144 -26 -65 -60 -128 -95 -174 l-54 -72 28 0 c61 0 64
-49 16 -265 -64 -290 -157 -575 -240 -742 l-51 -101 53 45 c73 63 108 108 149
199 76 164 137 385 189 689 42 242 100 442 131 452 7 2 24 -7 39 -19 l27 -24
-20 -69 c-34 -117 -42 -172 -42 -283 0 -140 20 -227 74 -337 54 -109 122 -192
219 -272 148 -121 252 -185 403 -248 60 -25 133 -57 162 -71 30 -13 52 -21 50
-16 -10 25 -148 133 -334 259 -233 158 -313 225 -379 318 -92 128 -142 303
-132 460 7 124 53 226 114 254 22 10 20 6 -17 -39 -23 -27 -50 -71 -60 -98
-21 -54 -37 -236 -23 -245 6 -4 42 27 82 67 91 95 123 164 146 322 6 39 10 43
53 60 62 23 151 113 185 186 15 31 33 85 41 120 19 89 40 374 33 449 -8 78
-63 279 -103 374 -52 123 -159 265 -200 265 -8 0 -25 18 -39 40 -17 27 -43 49
-83 69 -31 16 -96 58 -144 94 -149 111 -284 182 -438 229 -96 30 -345 35 -456
9z m96 -43 c-47 -23 -89 -56 -153 -120 -49 -49 -87 -91 -85 -93 1 -2 28 2 58
7 77 14 352 14 430 -1 231 -42 476 -166 638 -320 82 -78 108 -135 121 -269 8
-73 17 -114 33 -140 15 -26 19 -46 15 -64 l-7 -27 -38 16 c-20 9 -59 17 -87
17 l-50 1 -7 40 c-19 107 -4 173 47 213 25 20 26 21 10 58 -24 59 -61 100
-138 158 -134 99 -273 164 -447 207 -85 21 -118 24 -305 24 -178 0 -227 -4
-323 -23 -127 -26 -341 -86 -384 -108 -25 -13 -28 -13 -28 1 0 26 70 94 125
120 29 13 93 35 142 47 85 21 90 24 158 90 39 38 84 78 100 89 61 41 200 107
230 108 6 0 -19 -14 -55 -31z m485 -102 c140 -39 369 -180 518 -318 58 -55 70
-81 41 -92 -10 -4 -36 13 -77 52 -181 171 -334 266 -508 316 -45 13 -206 39
-289 47 -8 1 -1 5 15 10 46 12 233 3 300 -15z m-305 -286 c335 -41 522 -183
560 -424 6 -38 9 -70 7 -72 -2 -3 -33 5 -68 15 -35 11 -88 25 -116 31 -39 9
-53 16 -53 29 0 27 -52 102 -107 153 -65 60 -171 113 -276 138 -90 22 -281 38
-258 22 7 -5 22 -7 33 -4 48 12 256 -36 341 -80 76 -38 176 -160 177 -215 0
-25 -20 -12 -34 21 -20 48 -92 123 -141 148 -41 22 -321 118 -340 118 -5 0 24
-18 65 -40 41 -22 83 -49 95 -60 12 -13 -2 -8 -39 14 -58 35 -82 44 -74 29 46
-90 63 -212 54 -389 -8 -148 -25 -212 -74 -266 -86 -95 -150 -117 -513 -177
-386 -64 -517 -81 -560 -72 -41 8 17 20 524 106 206 35 342 62 365 74 49 25
76 56 104 116 22 48 23 59 23 320 0 270 0 270 -25 315 -16 27 -40 53 -63 65
-20 11 -37 23 -37 26 0 4 23 17 52 29 84 36 232 48 378 30z m-400 -4 c0 -6
-70 -46 -81 -46 -19 0 -8 20 19 34 25 14 62 21 62 12z m-51 -76 c39 -11 85
-51 109 -95 20 -38 29 -322 14 -471 -15 -144 -56 -215 -144 -243 -26 -8 -481
-87 -825 -142 -145 -24 -183 55 -170 351 12 256 62 372 187 435 109 55 403
132 585 154 50 6 101 13 115 15 51 7 96 6 129 -4z m1483 -147 c46 -87 68 -162
68 -230 0 -59 -21 -120 -44 -129 -19 -7 -129 42 -152 67 -11 13 -20 45 -24 97
-7 72 -6 79 18 115 22 32 26 51 26 110 1 40 -2 86 -7 102 -7 29 -6 28 36 -17
24 -25 60 -77 79 -115z m-964 -93 c17 -23 32 -49 32 -58 -1 -10 -9 -1 -20 19
-11 20 -41 56 -67 80 -42 37 -43 40 -13 22 19 -12 50 -40 68 -63z m95 -106
c142 -37 137 -33 137 -105 0 -53 -2 -60 -17 -55 -27 8 -345 74 -373 78 -23 3
-25 8 -28 62 -2 32 -1 65 2 72 5 14 83 -1 279 -52z m241 -64 c24 -9 26 -14 26
-70 0 -33 -3 -60 -7 -60 -5 0 -25 5 -45 11 l-38 10 0 59 c0 65 8 72 64 50z
m-338 -161 c-16 -173 -89 -242 -290 -274 -54 -9 -100 -14 -103 -12 -2 2 38 12
89 21 106 20 171 45 211 84 47 44 59 77 82 215 10 64 18 41 11 -34z m981 19
c7 -6 13 -21 13 -34 l0 -23 -52 24 c-29 14 -61 25 -70 25 -20 0 -21 4 -12 37
l6 22 51 -20 c29 -12 58 -25 64 -31z m-238 -22 l25 -14 -30 -15 c-37 -19 -97
-84 -120 -129 -24 -49 -44 -68 -71 -68 -15 0 -23 6 -23 18 0 35 28 132 44 157
38 57 120 81 175 51z m-254 -38 c49 -13 50 -14 35 -53 -23 -60 -42 -231 -37
-322 6 -87 5 -93 -16 -108 -12 -8 -36 -15 -54 -15 -26 0 -36 6 -47 28 -25 49
-29 140 -12 263 21 139 32 183 52 204 19 18 22 18 79 3z m275 -873 c-26 -53
-71 -89 -100 -80 -11 3 -20 14 -20 24 0 25 44 81 93 118 l42 32 3 -25 c2 -14
-6 -45 -18 -69z"/>
<path d="M2021 3744 c-289 -37 -658 -140 -718 -200 -43 -42 -45 -84 -5 -112
111 -79 561 -328 607 -337 42 -8 282 31 312 50 13 9 33 30 43 48 18 29 20 51
20 257 0 249 -3 264 -60 292 -40 21 -57 21 -199 2z"/>
<path d="M3584 3070 c-102 -71 -153 -220 -115 -333 22 -65 79 -59 116 13 19
36 47 226 43 292 l-3 56 -41 -28z"/>
<path d="M1809 2771 c-5 -29 -50 -45 -112 -39 l-39 4 23 -19 c13 -11 45 -30
71 -43 53 -27 53 -26 37 -108 -7 -42 -7 -62 0 -69 8 -8 11 -5 11 10 0 12 17
43 38 70 67 84 69 91 31 122 -18 16 -38 43 -45 62 -11 32 -12 32 -15 10z"/>
<path d="M1915 2505 c-53 -14 -85 -44 -85 -79 1 -21 1 -21 20 2 37 44 126 53
263 27 91 -17 161 -20 152 -5 -3 6 -17 10 -29 10 -13 0 -67 14 -121 30 -108
33 -127 35 -200 15z"/>
<path d="M1879 2378 l-57 -10 -7 -123 c-7 -131 -4 -153 28 -199 30 -42 90 -64
206 -75 107 -10 138 -22 167 -65 24 -37 45 -177 47 -313 2 -117 1 -122 -23
-148 -32 -34 -240 -135 -462 -224 -98 -39 -206 -85 -240 -102 -69 -34 -194
-114 -204 -130 -3 -5 20 7 52 27 79 51 177 95 318 143 135 47 158 51 95 18
-52 -28 -67 -62 -22 -51 153 37 309 121 416 224 46 45 57 52 57 35 -1 -33 -25
-91 -69 -163 -49 -81 -51 -109 -14 -183 l28 -54 7 53 c9 58 32 110 85 187 l35
50 -5 140 c-8 179 -36 369 -72 480 -10 31 107 -98 144 -159 18 -30 35 -73 38
-95 6 -46 9 -48 41 -25 62 43 69 164 15 251 -62 100 -66 128 -21 152 13 6 16
10 7 7 -48 -13 -181 -37 -185 -33 -3 2 25 12 61 21 119 30 356 106 419 135 33
15 72 38 86 49 24 21 22 21 -50 -4 -109 -37 -489 -131 -602 -149 -113 -17
-252 -20 -296 -4 -61 21 -81 87 -57 181 8 34 23 70 32 80 9 10 60 32 115 48
54 17 98 33 98 35 0 8 -153 3 -211 -7z"/>
<path d="M3105 1206 c-282 -110 -381 -165 -470 -257 -27 -28 -45 -50 -40 -48
103 39 717 371 680 368 -5 -1 -82 -29 -170 -63z"/>
<path d="M3495 1179 c-187 -101 -350 -209 -575 -385 -265 -205 -317 -229 -515
-227 -339 2 -522 114 -526 323 -1 64 -2 64 -9 20 -17 -101 29 -210 113 -267
142 -95 407 -128 669 -83 265 45 374 113 753 469 105 98 204 190 220 204 17
15 28 26 25 26 -3 0 -72 -36 -155 -80z"/>
</g>
</svg>